solid Default
  facet normal 0.000000e+00 -1.000000e+00 6.123234e-17
    outer loop
      vertex 1.750000e-01 5.567500e+00 3.296891e+00
      vertex 1.847521e+00 5.567500e+00 4.000000e-01
      vertex 3.000000e+00 5.567500e+00 4.000000e-01
    endloop
  endfacet
  facet normal 0.000000e+00 -1.000000e+00 6.123234e-17
    outer loop
      vertex -3.000000e+00 5.567500e+00 4.000000e-01
      vertex -1.847521e+00 5.567500e+00 4.000000e-01
      vertex -3.000000e+00 5.567500e+00 4.800000e+00
    endloop
  endfacet
  facet normal 0.000000e+00 -1.000000e+00 6.123234e-17
    outer loop
      vertex -3.000000e+00 5.567500e+00 4.800000e+00
      vertex -1.847521e+00 5.567500e+00 4.000000e-01
      vertex -1.750000e-01 5.567500e+00 3.296891e+00
    endloop
  endfacet
  facet normal 0.000000e+00 -1.000000e+00 6.123234e-17
    outer loop
      vertex -3.000000e+00 5.567500e+00 4.800000e+00
      vertex -1.750000e-01 5.567500e+00 3.296891e+00
      vertex 0.000000e+00 5.567500e+00 9.996153e+00
    endloop
  endfacet
  facet normal 0.000000e+00 -1.000000e+00 6.123234e-17
    outer loop
      vertex 0.000000e+00 5.567500e+00 9.996153e+00
      vertex -1.750000e-01 5.567500e+00 3.296891e+00
      vertex 1.750000e-01 5.567500e+00 3.296891e+00
    endloop
  endfacet
  facet normal 0.000000e+00 -1.000000e+00 6.123234e-17
    outer loop
      vertex 0.000000e+00 5.567500e+00 9.996153e+00
      vertex 1.750000e-01 5.567500e+00 3.296891e+00
      vertex 3.000000e+00 5.567500e+00 4.800000e+00
    endloop
  endfacet
  facet normal 0.000000e+00 -1.000000e+00 6.123234e-17
    outer loop
      vertex 3.000000e+00 5.567500e+00 4.800000e+00
      vertex 1.750000e-01 5.567500e+00 3.296891e+00
      vertex 3.000000e+00 5.567500e+00 4.000000e-01
    endloop
  endfacet
  facet normal 1.000000e+00 0.000000e+00 0.000000e+00
    outer loop
      vertex 3.000000e+00 9.167500e+00 4.000000e-01
      vertex 3.000000e+00 9.167500e+00 4.800000e+00
      vertex 3.000000e+00 5.567500e+00 4.000000e-01
    endloop
  endfacet
  facet normal 1.000000e+00 0.000000e+00 0.000000e+00
    outer loop
      vertex 3.000000e+00 5.567500e+00 4.000000e-01
      vertex 3.000000e+00 9.167500e+00 4.800000e+00
      vertex 3.000000e+00 5.567500e+00 4.800000e+00
    endloop
  endfacet
  facet normal -1.000000e+00 0.000000e+00 0.000000e+00
    outer loop
      vertex -3.000000e+00 5.567500e+00 4.000000e-01
      vertex -3.000000e+00 5.567500e+00 4.800000e+00
      vertex -3.000000e+00 9.167500e+00 4.000000e-01
    endloop
  endfacet
  facet normal -1.000000e+00 0.000000e+00 0.000000e+00
    outer loop
      vertex -3.000000e+00 9.167500e+00 4.000000e-01
      vertex -3.000000e+00 5.567500e+00 4.800000e+00
      vertex -3.000000e+00 9.167500e+00 4.800000e+00
    endloop
  endfacet
  facet normal 0.000000e+00 1.000000e+00 -6.123234e-17
    outer loop
      vertex 1.343118e+00 9.167500e+00 6.680977e-01
      vertex 3.000000e+00 9.167500e+00 4.000000e-01
      vertex 1.069995e+00 9.167500e+00 4.602928e-01
    endloop
  endfacet
  facet normal 0.000000e+00 1.000000e+00 -6.123234e-17
    outer loop
      vertex 1.069995e+00 9.167500e+00 4.602928e-01
      vertex 3.000000e+00 9.167500e+00 4.000000e-01
      vertex 9.682457e-01 9.167500e+00 4.000000e-01
    endloop
  endfacet
  facet normal 0.000000e+00 1.000000e+00 -6.123234e-17
    outer loop
      vertex 1.343118e+00 9.167500e+00 6.680977e-01
      vertex 1.576693e+00 9.167500e+00 9.195368e-01
      vertex 3.000000e+00 9.167500e+00 4.000000e-01
    endloop
  endfacet
  facet normal 0.000000e+00 1.000000e+00 -6.123234e-17
    outer loop
      vertex 3.000000e+00 9.167500e+00 4.000000e-01
      vertex 1.576693e+00 9.167500e+00 9.195368e-01
      vertex 1.763843e+00 9.167500e+00 1.207206e+00
    endloop
  endfacet
  facet normal 0.000000e+00 1.000000e+00 -6.123234e-17
    outer loop
      vertex 3.000000e+00 9.167500e+00 4.000000e-01
      vertex 1.763843e+00 9.167500e+00 1.207206e+00
      vertex 1.899056e+00 9.167500e+00 1.522637e+00
    endloop
  endfacet
  facet normal 0.000000e+00 1.000000e+00 -6.123234e-17
    outer loop
      vertex 1.961571e+00 9.167500e+00 2.540181e+00
      vertex 3.000000e+00 9.167500e+00 4.800000e+00
      vertex 1.999397e+00 9.167500e+00 2.199082e+00
    endloop
  endfacet
  facet normal 0.000000e+00 1.000000e+00 -6.123234e-17
    outer loop
      vertex 1.999397e+00 9.167500e+00 2.199082e+00
      vertex 3.000000e+00 9.167500e+00 4.800000e+00
      vertex 3.000000e+00 9.167500e+00 4.000000e-01
    endloop
  endfacet
  facet normal 0.000000e+00 1.000000e+00 -6.123234e-17
    outer loop
      vertex 1.999397e+00 9.167500e+00 2.199082e+00
      vertex 3.000000e+00 9.167500e+00 4.000000e-01
      vertex 1.978353e+00 9.167500e+00 1.856539e+00
    endloop
  endfacet
  facet normal 0.000000e+00 1.000000e+00 -6.123234e-17
    outer loop
      vertex 1.978353e+00 9.167500e+00 1.856539e+00
      vertex 3.000000e+00 9.167500e+00 4.000000e-01
      vertex 1.899056e+00 9.167500e+00 1.522637e+00
    endloop
  endfacet
  facet normal 0.000000e+00 1.000000e+00 -6.123234e-17
    outer loop
      vertex 1.961571e+00 9.167500e+00 2.540181e+00
      vertex 1.865985e+00 9.167500e+00 2.869790e+00
      vertex 3.000000e+00 9.167500e+00 4.800000e+00
    endloop
  endfacet
  facet normal 0.000000e+00 1.000000e+00 -6.123234e-17
    outer loop
      vertex 3.000000e+00 9.167500e+00 4.800000e+00
      vertex 1.865985e+00 9.167500e+00 2.869790e+00
      vertex 1.715457e+00 9.167500e+00 3.178205e+00
    endloop
  endfacet
  facet normal 0.000000e+00 1.000000e+00 -6.123234e-17
    outer loop
      vertex 3.000000e+00 9.167500e+00 4.800000e+00
      vertex 1.715457e+00 9.167500e+00 3.178205e+00
      vertex 1.514418e+00 9.167500e+00 3.456346e+00
    endloop
  endfacet
  facet normal 0.000000e+00 1.000000e+00 -6.123234e-17
    outer loop
      vertex 3.419240e-01 9.167500e+00 4.120555e+00
      vertex 0.000000e+00 9.167500e+00 4.150000e+00
      vertex 0.000000e+00 9.167500e+00 9.996153e+00
    endloop
  endfacet
  facet normal 0.000000e+00 1.000000e+00 -6.123234e-17
    outer loop
      vertex 1.514418e+00 9.167500e+00 3.456346e+00
      vertex 1.268787e+00 9.167500e+00 3.696021e+00
      vertex 3.000000e+00 9.167500e+00 4.800000e+00
    endloop
  endfacet
  facet normal 0.000000e+00 1.000000e+00 -6.123234e-17
    outer loop
      vertex 3.000000e+00 9.167500e+00 4.800000e+00
      vertex 1.268787e+00 9.167500e+00 3.696021e+00
      vertex 9.857962e-01 9.167500e+00 3.890174e+00
    endloop
  endfacet
  facet normal 0.000000e+00 1.000000e+00 -6.123234e-17
    outer loop
      vertex 3.000000e+00 9.167500e+00 4.800000e+00
      vertex 9.857962e-01 9.167500e+00 3.890174e+00
      vertex 0.000000e+00 9.167500e+00 9.996153e+00
    endloop
  endfacet
  facet normal 0.000000e+00 1.000000e+00 -6.123234e-17
    outer loop
      vertex 0.000000e+00 9.167500e+00 9.996153e+00
      vertex 9.857962e-01 9.167500e+00 3.890174e+00
      vertex 6.737797e-01 9.167500e+00 4.033088e+00
    endloop
  endfacet
  facet normal 0.000000e+00 1.000000e+00 -6.123234e-17
    outer loop
      vertex 0.000000e+00 9.167500e+00 9.996153e+00
      vertex 6.737797e-01 9.167500e+00 4.033088e+00
      vertex 3.419240e-01 9.167500e+00 4.120555e+00
    endloop
  endfacet
  facet normal 0.000000e+00 1.000000e+00 -6.123234e-17
    outer loop
      vertex -1.978353e+00 9.167500e+00 1.856539e+00
      vertex -1.899056e+00 9.167500e+00 1.522637e+00
      vertex -3.000000e+00 9.167500e+00 4.000000e-01
    endloop
  endfacet
  facet normal 0.000000e+00 1.000000e+00 -6.123234e-17
    outer loop
      vertex -3.000000e+00 9.167500e+00 4.000000e-01
      vertex -1.899056e+00 9.167500e+00 1.522637e+00
      vertex -1.763842e+00 9.167500e+00 1.207206e+00
    endloop
  endfacet
  facet normal 0.000000e+00 1.000000e+00 -6.123234e-17
    outer loop
      vertex -3.000000e+00 9.167500e+00 4.000000e-01
      vertex -1.763842e+00 9.167500e+00 1.207206e+00
      vertex -1.576693e+00 9.167500e+00 9.195368e-01
    endloop
  endfacet
  facet normal 0.000000e+00 1.000000e+00 -6.123234e-17
    outer loop
      vertex -1.268787e+00 9.167500e+00 3.696021e+00
      vertex -1.514418e+00 9.167500e+00 3.456346e+00
      vertex -3.000000e+00 9.167500e+00 4.800000e+00
    endloop
  endfacet
  facet normal 0.000000e+00 1.000000e+00 -6.123234e-17
    outer loop
      vertex -3.000000e+00 9.167500e+00 4.800000e+00
      vertex -1.514418e+00 9.167500e+00 3.456346e+00
      vertex -1.715457e+00 9.167500e+00 3.178205e+00
    endloop
  endfacet
  facet normal 0.000000e+00 1.000000e+00 -6.123234e-17
    outer loop
      vertex -1.576693e+00 9.167500e+00 9.195368e-01
      vertex -1.343118e+00 9.167500e+00 6.680977e-01
      vertex -3.000000e+00 9.167500e+00 4.000000e-01
    endloop
  endfacet
  facet normal 0.000000e+00 1.000000e+00 -6.123234e-17
    outer loop
      vertex -3.000000e+00 9.167500e+00 4.000000e-01
      vertex -1.343118e+00 9.167500e+00 6.680977e-01
      vertex -1.069995e+00 9.167500e+00 4.602928e-01
    endloop
  endfacet
  facet normal 0.000000e+00 1.000000e+00 -6.123234e-17
    outer loop
      vertex -3.000000e+00 9.167500e+00 4.000000e-01
      vertex -1.069995e+00 9.167500e+00 4.602928e-01
      vertex -9.682457e-01 9.167500e+00 4.000000e-01
    endloop
  endfacet
  facet normal 0.000000e+00 1.000000e+00 -6.123234e-17
    outer loop
      vertex 0.000000e+00 9.167500e+00 4.150000e+00
      vertex -3.419240e-01 9.167500e+00 4.120555e+00
      vertex 0.000000e+00 9.167500e+00 9.996153e+00
    endloop
  endfacet
  facet normal 0.000000e+00 1.000000e+00 -6.123234e-17
    outer loop
      vertex 0.000000e+00 9.167500e+00 9.996153e+00
      vertex -3.419240e-01 9.167500e+00 4.120555e+00
      vertex -6.737797e-01 9.167500e+00 4.033088e+00
    endloop
  endfacet
  facet normal 0.000000e+00 1.000000e+00 -6.123234e-17
    outer loop
      vertex 0.000000e+00 9.167500e+00 9.996153e+00
      vertex -6.737797e-01 9.167500e+00 4.033088e+00
      vertex -3.000000e+00 9.167500e+00 4.800000e+00
    endloop
  endfacet
  facet normal 0.000000e+00 1.000000e+00 -6.123234e-17
    outer loop
      vertex -3.000000e+00 9.167500e+00 4.800000e+00
      vertex -6.737797e-01 9.167500e+00 4.033088e+00
      vertex -9.857962e-01 9.167500e+00 3.890174e+00
    endloop
  endfacet
  facet normal 0.000000e+00 1.000000e+00 -6.123234e-17
    outer loop
      vertex -3.000000e+00 9.167500e+00 4.800000e+00
      vertex -9.857962e-01 9.167500e+00 3.890174e+00
      vertex -1.268787e+00 9.167500e+00 3.696021e+00
    endloop
  endfacet
  facet normal 0.000000e+00 1.000000e+00 -6.123234e-17
    outer loop
      vertex -1.715457e+00 9.167500e+00 3.178205e+00
      vertex -1.865986e+00 9.167500e+00 2.869790e+00
      vertex -3.000000e+00 9.167500e+00 4.800000e+00
    endloop
  endfacet
  facet normal 0.000000e+00 1.000000e+00 -6.123234e-17
    outer loop
      vertex -3.000000e+00 9.167500e+00 4.800000e+00
      vertex -1.865986e+00 9.167500e+00 2.869790e+00
      vertex -1.961570e+00 9.167500e+00 2.540181e+00
    endloop
  endfacet
  facet normal 0.000000e+00 1.000000e+00 -6.123234e-17
    outer loop
      vertex -3.000000e+00 9.167500e+00 4.800000e+00
      vertex -1.961570e+00 9.167500e+00 2.540181e+00
      vertex -3.000000e+00 9.167500e+00 4.000000e-01
    endloop
  endfacet
  facet normal 0.000000e+00 1.000000e+00 -6.123234e-17
    outer loop
      vertex -3.000000e+00 9.167500e+00 4.000000e-01
      vertex -1.961570e+00 9.167500e+00 2.540181e+00
      vertex -1.999398e+00 9.167500e+00 2.199082e+00
    endloop
  endfacet
  facet normal 0.000000e+00 1.000000e+00 -6.123234e-17
    outer loop
      vertex -3.000000e+00 9.167500e+00 4.000000e-01
      vertex -1.999398e+00 9.167500e+00 2.199082e+00
      vertex -1.978353e+00 9.167500e+00 1.856539e+00
    endloop
  endfacet
  facet normal 4.170846e-01 5.565210e-17 9.088677e-01
    outer loop
      vertex -7.653670e-01 6.817500e+00 3.022409e-01
      vertex -7.653670e-01 9.069740e+00 3.022409e-01
      vertex -9.682457e-01 9.167500e+00 4.000000e-01
    endloop
  endfacet
  facet normal -4.170846e-01 5.565210e-17 9.088677e-01
    outer loop
      vertex 7.653670e-01 9.069740e+00 3.022409e-01
      vertex 7.653670e-01 6.817500e+00 3.022409e-01
      vertex 9.682457e-01 9.167500e+00 4.000000e-01
    endloop
  endfacet
  facet normal -4.684568e-01 5.409794e-17 8.834864e-01
    outer loop
      vertex 9.682457e-01 9.167500e+00 4.000000e-01
      vertex 7.653670e-01 6.817500e+00 3.022409e-01
      vertex 1.069995e+00 6.817500e+00 4.602928e-01
    endloop
  endfacet
  facet normal 4.684568e-01 5.409794e-17 8.834864e-01
    outer loop
      vertex -7.653670e-01 6.817500e+00 3.022409e-01
      vertex -9.682457e-01 9.167500e+00 4.000000e-01
      vertex -1.069995e+00 6.817500e+00 4.602928e-01
    endloop
  endfacet
  facet normal 5.182407e-01 5.236802e-17 8.552347e-01
    outer loop
      vertex -1.069995e+00 6.817500e+00 4.602928e-01
      vertex -9.682457e-01 9.167500e+00 4.000000e-01
      vertex -1.069995e+00 9.167500e+00 4.602928e-01
    endloop
  endfacet
  facet normal 5.824267e-01 4.977474e-17 8.128833e-01
    outer loop
      vertex -1.069995e+00 6.817500e+00 4.602928e-01
      vertex -1.069995e+00 9.167500e+00 4.602928e-01
      vertex -1.343118e+00 6.817500e+00 6.680977e-01
    endloop
  endfacet
  facet normal 6.280968e-01 4.764704e-17 7.781352e-01
    outer loop
      vertex -1.343118e+00 6.817500e+00 6.680977e-01
      vertex -1.069995e+00 9.167500e+00 4.602928e-01
      vertex -1.343118e+00 9.167500e+00 6.680977e-01
    endloop
  endfacet
  facet normal 7.128240e-01 4.294486e-17 7.013429e-01
    outer loop
      vertex -1.343118e+00 6.817500e+00 6.680977e-01
      vertex -1.343118e+00 9.167500e+00 6.680977e-01
      vertex -1.576693e+00 6.817500e+00 9.195368e-01
    endloop
  endfacet
  facet normal 7.518812e-01 4.037039e-17 6.592986e-01
    outer loop
      vertex -1.576693e+00 6.817500e+00 9.195368e-01
      vertex -1.343118e+00 9.167500e+00 6.680977e-01
      vertex -1.576693e+00 9.167500e+00 9.195368e-01
    endloop
  endfacet
  facet normal 8.222325e-01 3.485050e-17 5.691518e-01
    outer loop
      vertex -1.576693e+00 6.817500e+00 9.195368e-01
      vertex -1.576693e+00 9.167500e+00 9.195368e-01
      vertex -1.763842e+00 6.817500e+00 1.207206e+00
    endloop
  endfacet
  facet normal 8.535267e-01 3.190506e-17 5.210492e-01
    outer loop
      vertex -1.763842e+00 6.817500e+00 1.207206e+00
      vertex -1.576693e+00 9.167500e+00 9.195368e-01
      vertex -1.763842e+00 9.167500e+00 1.207206e+00
    endloop
  endfacet
  facet normal 9.074305e-01 2.572995e-17 4.202020e-01
    outer loop
      vertex -1.763842e+00 6.817500e+00 1.207206e+00
      vertex -1.763842e+00 9.167500e+00 1.207206e+00
      vertex -1.899056e+00 6.817500e+00 1.522637e+00
    endloop
  endfacet
  facet normal 9.300403e-01 2.250029e-17 3.674575e-01
    outer loop
      vertex -1.899056e+00 6.817500e+00 1.522637e+00
      vertex -1.763842e+00 9.167500e+00 1.207206e+00
      vertex -1.899056e+00 9.167500e+00 1.522637e+00
    endloop
  endfacet
  facet normal 9.659095e-01 1.585181e-17 2.588797e-01
    outer loop
      vertex -1.899056e+00 6.817500e+00 1.522637e+00
      vertex -1.899056e+00 9.167500e+00 1.522637e+00
      vertex -1.978353e+00 6.817500e+00 1.856539e+00
    endloop
  endfacet
  facet normal 9.791691e-01 1.243300e-17 2.030463e-01
    outer loop
      vertex -1.978353e+00 6.817500e+00 1.856539e+00
      vertex -1.899056e+00 9.167500e+00 1.522637e+00
      vertex -1.978353e+00 9.167500e+00 1.856539e+00
    endloop
  endfacet
  facet normal 9.959477e-01 5.506907e-18 8.993462e-02
    outer loop
      vertex -1.978353e+00 6.817500e+00 1.856539e+00
      vertex -1.978353e+00 9.167500e+00 1.856539e+00
      vertex -1.999398e+00 6.817500e+00 2.199082e+00
    endloop
  endfacet
  facet normal 9.994667e-01 1.999625e-18 3.265635e-02
    outer loop
      vertex -1.999398e+00 6.817500e+00 2.199082e+00
      vertex -1.978353e+00 9.167500e+00 1.856539e+00
      vertex -1.999398e+00 9.167500e+00 2.199082e+00
    endloop
  endfacet
  facet normal 9.966604e-01 -5.000142e-18 -8.165852e-02
    outer loop
      vertex -1.999398e+00 6.817500e+00 2.199082e+00
      vertex -1.999398e+00 9.167500e+00 2.199082e+00
      vertex -1.961570e+00 6.817500e+00 2.540181e+00
    endloop
  endfacet
  facet normal 9.903351e-01 -8.492626e-18 -1.386951e-01
    outer loop
      vertex -1.961570e+00 6.817500e+00 2.540181e+00
      vertex -1.999398e+00 9.167500e+00 2.199082e+00
      vertex -1.961570e+00 9.167500e+00 2.540181e+00
    endloop
  endfacet
  facet normal 9.680267e-01 -1.535997e-17 -2.508473e-01
    outer loop
      vertex -1.961570e+00 6.817500e+00 2.540181e+00
      vertex -1.961570e+00 9.167500e+00 2.540181e+00
      vertex -1.865986e+00 6.817500e+00 2.869790e+00
    endloop
  endfacet
  facet normal 9.520435e-01 -1.873482e-17 -3.059628e-01
    outer loop
      vertex -1.865986e+00 6.817500e+00 2.869790e+00
      vertex -1.961570e+00 9.167500e+00 2.540181e+00
      vertex -1.865986e+00 9.167500e+00 2.869790e+00
    endloop
  endfacet
  facet normal 9.108897e-01 -2.526752e-17 -4.126499e-01
    outer loop
      vertex -1.865986e+00 6.817500e+00 2.869790e+00
      vertex -1.865986e+00 9.167500e+00 2.869790e+00
      vertex -1.715457e+00 6.817500e+00 3.178205e+00
    endloop
  endfacet
  facet normal 8.857192e-01 -2.842537e-17 -4.642215e-01
    outer loop
      vertex -1.715457e+00 6.817500e+00 3.178205e+00
      vertex -1.865986e+00 9.167500e+00 2.869790e+00
      vertex -1.715457e+00 9.167500e+00 3.178205e+00
    endloop
  endfacet
  facet normal 8.269319e-01 -3.443108e-17 -5.623021e-01
    outer loop
      vertex -1.715457e+00 6.817500e+00 3.178205e+00
      vertex -1.715457e+00 9.167500e+00 3.178205e+00
      vertex -1.514418e+00 6.817500e+00 3.456346e+00
    endloop
  endfacet
  facet normal 7.933151e-01 -3.727894e-17 -6.088113e-01
    outer loop
      vertex -1.514418e+00 6.817500e+00 3.456346e+00
      vertex -1.715457e+00 9.167500e+00 3.178205e+00
      vertex -1.514418e+00 9.167500e+00 3.456346e+00
    endloop
  endfacet
  facet normal 7.186252e-01 -4.258083e-17 -6.953976e-01
    outer loop
      vertex -1.514418e+00 6.817500e+00 3.456346e+00
      vertex -1.514418e+00 9.167500e+00 3.456346e+00
      vertex -1.268787e+00 6.817500e+00 3.696021e+00
    endloop
  endfacet
  facet normal 6.775521e-01 -4.503484e-17 -7.354748e-01
    outer loop
      vertex -1.268787e+00 6.817500e+00 3.696021e+00
      vertex -1.514418e+00 9.167500e+00 3.456346e+00
      vertex -1.268787e+00 9.167500e+00 3.696021e+00
    endloop
  endfacet
  facet normal 5.891589e-01 -4.947678e-17 -8.080172e-01
    outer loop
      vertex -1.268787e+00 6.817500e+00 3.696021e+00
      vertex -1.268787e+00 9.167500e+00 3.696021e+00
      vertex -9.857962e-01 6.817500e+00 3.890174e+00
    endloop
  endfacet
  facet normal 5.418388e-01 -5.146471e-17 -8.404824e-01
    outer loop
      vertex -9.857962e-01 6.817500e+00 3.890174e+00
      vertex -1.268787e+00 9.167500e+00 3.696021e+00
      vertex -9.857962e-01 9.167500e+00 3.890174e+00
    endloop
  endfacet
  facet normal 4.423450e-01 -5.491592e-17 -8.968450e-01
    outer loop
      vertex -9.857962e-01 6.817500e+00 3.890174e+00
      vertex -9.857962e-01 9.167500e+00 3.890174e+00
      vertex -6.737797e-01 6.817500e+00 4.033088e+00
    endloop
  endfacet
  facet normal 3.901712e-01 -5.637920e-17 -9.207423e-01
    outer loop
      vertex -6.737797e-01 6.817500e+00 4.033088e+00
      vertex -9.857962e-01 9.167500e+00 3.890174e+00
      vertex -6.737797e-01 9.167500e+00 4.033088e+00
    endloop
  endfacet
  facet normal 2.825063e-01 -5.873807e-17 -9.592654e-01
    outer loop
      vertex -6.737797e-01 6.817500e+00 4.033088e+00
      vertex -6.737797e-01 9.167500e+00 4.033088e+00
      vertex -3.419240e-01 6.817500e+00 4.120555e+00
    endloop
  endfacet
  facet normal 2.270151e-01 -5.963364e-17 -9.738913e-01
    outer loop
      vertex -3.419240e-01 6.817500e+00 4.120555e+00
      vertex -6.737797e-01 9.167500e+00 4.033088e+00
      vertex -3.419240e-01 9.167500e+00 4.120555e+00
    endloop
  endfacet
  facet normal 1.143493e-01 -6.083069e-17 -9.934406e-01
    outer loop
      vertex -3.419240e-01 6.817500e+00 4.120555e+00
      vertex -3.419240e-01 9.167500e+00 4.120555e+00
      vertex 0.000000e+00 6.817500e+00 4.150000e+00
    endloop
  endfacet
  facet normal 5.717466e-02 -6.113217e-17 -9.983642e-01
    outer loop
      vertex 0.000000e+00 6.817500e+00 4.150000e+00
      vertex -3.419240e-01 9.167500e+00 4.120555e+00
      vertex 0.000000e+00 9.167500e+00 4.150000e+00
    endloop
  endfacet
  facet normal -5.717466e-02 -6.113217e-17 -9.983642e-01
    outer loop
      vertex 0.000000e+00 6.817500e+00 4.150000e+00
      vertex 0.000000e+00 9.167500e+00 4.150000e+00
      vertex 3.419240e-01 6.817500e+00 4.120555e+00
    endloop
  endfacet
  facet normal -1.143493e-01 -6.083069e-17 -9.934406e-01
    outer loop
      vertex 3.419240e-01 6.817500e+00 4.120555e+00
      vertex 0.000000e+00 9.167500e+00 4.150000e+00
      vertex 3.419240e-01 9.167500e+00 4.120555e+00
    endloop
  endfacet
  facet normal -2.270151e-01 -5.963364e-17 -9.738913e-01
    outer loop
      vertex 3.419240e-01 6.817500e+00 4.120555e+00
      vertex 3.419240e-01 9.167500e+00 4.120555e+00
      vertex 6.737797e-01 6.817500e+00 4.033088e+00
    endloop
  endfacet
  facet normal -2.825063e-01 -5.873807e-17 -9.592654e-01
    outer loop
      vertex 6.737797e-01 6.817500e+00 4.033088e+00
      vertex 3.419240e-01 9.167500e+00 4.120555e+00
      vertex 6.737797e-01 9.167500e+00 4.033088e+00
    endloop
  endfacet
  facet normal -3.901712e-01 -5.637920e-17 -9.207423e-01
    outer loop
      vertex 6.737797e-01 6.817500e+00 4.033088e+00
      vertex 6.737797e-01 9.167500e+00 4.033088e+00
      vertex 9.857962e-01 6.817500e+00 3.890174e+00
    endloop
  endfacet
  facet normal -4.423450e-01 -5.491592e-17 -8.968450e-01
    outer loop
      vertex 9.857962e-01 6.817500e+00 3.890174e+00
      vertex 6.737797e-01 9.167500e+00 4.033088e+00
      vertex 9.857962e-01 9.167500e+00 3.890174e+00
    endloop
  endfacet
  facet normal -5.418388e-01 -5.146471e-17 -8.404824e-01
    outer loop
      vertex 9.857962e-01 6.817500e+00 3.890174e+00
      vertex 9.857962e-01 9.167500e+00 3.890174e+00
      vertex 1.268787e+00 6.817500e+00 3.696021e+00
    endloop
  endfacet
  facet normal -5.891589e-01 -4.947678e-17 -8.080172e-01
    outer loop
      vertex 1.268787e+00 6.817500e+00 3.696021e+00
      vertex 9.857962e-01 9.167500e+00 3.890174e+00
      vertex 1.268787e+00 9.167500e+00 3.696021e+00
    endloop
  endfacet
  facet normal -6.775521e-01 -4.503484e-17 -7.354748e-01
    outer loop
      vertex 1.268787e+00 6.817500e+00 3.696021e+00
      vertex 1.268787e+00 9.167500e+00 3.696021e+00
      vertex 1.514418e+00 6.817500e+00 3.456346e+00
    endloop
  endfacet
  facet normal -7.186252e-01 -4.258083e-17 -6.953976e-01
    outer loop
      vertex 1.514418e+00 6.817500e+00 3.456346e+00
      vertex 1.268787e+00 9.167500e+00 3.696021e+00
      vertex 1.514418e+00 9.167500e+00 3.456346e+00
    endloop
  endfacet
  facet normal -7.933151e-01 -3.727894e-17 -6.088112e-01
    outer loop
      vertex 1.514418e+00 6.817500e+00 3.456346e+00
      vertex 1.514418e+00 9.167500e+00 3.456346e+00
      vertex 1.715457e+00 6.817500e+00 3.178205e+00
    endloop
  endfacet
  facet normal -8.269319e-01 -3.443108e-17 -5.623021e-01
    outer loop
      vertex 1.715457e+00 6.817500e+00 3.178205e+00
      vertex 1.514418e+00 9.167500e+00 3.456346e+00
      vertex 1.715457e+00 9.167500e+00 3.178205e+00
    endloop
  endfacet
  facet normal -8.857192e-01 -2.842537e-17 -4.642215e-01
    outer loop
      vertex 1.715457e+00 6.817500e+00 3.178205e+00
      vertex 1.715457e+00 9.167500e+00 3.178205e+00
      vertex 1.865985e+00 6.817500e+00 2.869790e+00
    endloop
  endfacet
  facet normal -9.108897e-01 -2.526752e-17 -4.126499e-01
    outer loop
      vertex 1.865985e+00 6.817500e+00 2.869790e+00
      vertex 1.715457e+00 9.167500e+00 3.178205e+00
      vertex 1.865985e+00 9.167500e+00 2.869790e+00
    endloop
  endfacet
  facet normal -9.520435e-01 -1.873482e-17 -3.059628e-01
    outer loop
      vertex 1.865985e+00 6.817500e+00 2.869790e+00
      vertex 1.865985e+00 9.167500e+00 2.869790e+00
      vertex 1.961571e+00 6.817500e+00 2.540181e+00
    endloop
  endfacet
  facet normal -9.680267e-01 -1.535997e-17 -2.508473e-01
    outer loop
      vertex 1.961571e+00 6.817500e+00 2.540181e+00
      vertex 1.865985e+00 9.167500e+00 2.869790e+00
      vertex 1.961571e+00 9.167500e+00 2.540181e+00
    endloop
  endfacet
  facet normal -9.903351e-01 -8.492626e-18 -1.386951e-01
    outer loop
      vertex 1.961571e+00 6.817500e+00 2.540181e+00
      vertex 1.961571e+00 9.167500e+00 2.540181e+00
      vertex 1.999397e+00 6.817500e+00 2.199082e+00
    endloop
  endfacet
  facet normal -9.966604e-01 -5.000142e-18 -8.165852e-02
    outer loop
      vertex 1.999397e+00 6.817500e+00 2.199082e+00
      vertex 1.961571e+00 9.167500e+00 2.540181e+00
      vertex 1.999397e+00 9.167500e+00 2.199082e+00
    endloop
  endfacet
  facet normal -9.994667e-01 1.999625e-18 3.265635e-02
    outer loop
      vertex 1.999397e+00 6.817500e+00 2.199082e+00
      vertex 1.999397e+00 9.167500e+00 2.199082e+00
      vertex 1.978353e+00 6.817500e+00 1.856539e+00
    endloop
  endfacet
  facet normal -9.959477e-01 5.506907e-18 8.993462e-02
    outer loop
      vertex 1.978353e+00 6.817500e+00 1.856539e+00
      vertex 1.999397e+00 9.167500e+00 2.199082e+00
      vertex 1.978353e+00 9.167500e+00 1.856539e+00
    endloop
  endfacet
  facet normal -9.791691e-01 1.243300e-17 2.030463e-01
    outer loop
      vertex 1.978353e+00 6.817500e+00 1.856539e+00
      vertex 1.978353e+00 9.167500e+00 1.856539e+00
      vertex 1.899056e+00 6.817500e+00 1.522637e+00
    endloop
  endfacet
  facet normal -9.659095e-01 1.585181e-17 2.588797e-01
    outer loop
      vertex 1.899056e+00 6.817500e+00 1.522637e+00
      vertex 1.978353e+00 9.167500e+00 1.856539e+00
      vertex 1.899056e+00 9.167500e+00 1.522637e+00
    endloop
  endfacet
  facet normal -9.300403e-01 2.250029e-17 3.674575e-01
    outer loop
      vertex 1.899056e+00 6.817500e+00 1.522637e+00
      vertex 1.899056e+00 9.167500e+00 1.522637e+00
      vertex 1.763843e+00 6.817500e+00 1.207206e+00
    endloop
  endfacet
  facet normal -9.074305e-01 2.572995e-17 4.202020e-01
    outer loop
      vertex 1.763843e+00 6.817500e+00 1.207206e+00
      vertex 1.899056e+00 9.167500e+00 1.522637e+00
      vertex 1.763843e+00 9.167500e+00 1.207206e+00
    endloop
  endfacet
  facet normal -8.535267e-01 3.190506e-17 5.210492e-01
    outer loop
      vertex 1.763843e+00 6.817500e+00 1.207206e+00
      vertex 1.763843e+00 9.167500e+00 1.207206e+00
      vertex 1.576693e+00 6.817500e+00 9.195368e-01
    endloop
  endfacet
  facet normal -8.222325e-01 3.485050e-17 5.691518e-01
    outer loop
      vertex 1.576693e+00 6.817500e+00 9.195368e-01
      vertex 1.763843e+00 9.167500e+00 1.207206e+00
      vertex 1.576693e+00 9.167500e+00 9.195368e-01
    endloop
  endfacet
  facet normal -7.518812e-01 4.037039e-17 6.592986e-01
    outer loop
      vertex 1.576693e+00 6.817500e+00 9.195368e-01
      vertex 1.576693e+00 9.167500e+00 9.195368e-01
      vertex 1.343118e+00 6.817500e+00 6.680977e-01
    endloop
  endfacet
  facet normal -7.128240e-01 4.294486e-17 7.013429e-01
    outer loop
      vertex 1.343118e+00 6.817500e+00 6.680977e-01
      vertex 1.576693e+00 9.167500e+00 9.195368e-01
      vertex 1.343118e+00 9.167500e+00 6.680977e-01
    endloop
  endfacet
  facet normal -6.280968e-01 4.764704e-17 7.781352e-01
    outer loop
      vertex 1.343118e+00 6.817500e+00 6.680977e-01
      vertex 1.343118e+00 9.167500e+00 6.680977e-01
      vertex 1.069995e+00 6.817500e+00 4.602928e-01
    endloop
  endfacet
  facet normal -5.824267e-01 4.977474e-17 8.128833e-01
    outer loop
      vertex 1.069995e+00 6.817500e+00 4.602928e-01
      vertex 1.343118e+00 9.167500e+00 6.680977e-01
      vertex 1.069995e+00 9.167500e+00 4.602928e-01
    endloop
  endfacet
  facet normal -5.182407e-01 5.236802e-17 8.552347e-01
    outer loop
      vertex 1.069995e+00 6.817500e+00 4.602928e-01
      vertex 1.069995e+00 9.167500e+00 4.602928e-01
      vertex 9.682457e-01 9.167500e+00 4.000000e-01
    endloop
  endfacet
  facet normal 0.000000e+00 1.000000e+00 -6.123234e-17
    outer loop
      vertex -7.653670e-01 6.817500e+00 3.022409e-01
      vertex 1.978353e+00 6.817500e+00 1.856539e+00
      vertex 1.899056e+00 6.817500e+00 1.522637e+00
    endloop
  endfacet
  facet normal 0.000000e+00 1.000000e+00 -6.123234e-17
    outer loop
      vertex 1.978353e+00 6.817500e+00 1.856539e+00
      vertex -7.653670e-01 6.817500e+00 3.022409e-01
      vertex 1.999397e+00 6.817500e+00 2.199082e+00
    endloop
  endfacet
  facet normal 0.000000e+00 1.000000e+00 -6.123234e-17
    outer loop
      vertex 1.999397e+00 6.817500e+00 2.199082e+00
      vertex -7.653670e-01 6.817500e+00 3.022409e-01
      vertex -1.069995e+00 6.817500e+00 4.602928e-01
    endloop
  endfacet
  facet normal 0.000000e+00 1.000000e+00 -6.123234e-17
    outer loop
      vertex 1.999397e+00 6.817500e+00 2.199082e+00
      vertex -1.069995e+00 6.817500e+00 4.602928e-01
      vertex -1.343118e+00 6.817500e+00 6.680977e-01
    endloop
  endfacet
  facet normal 0.000000e+00 1.000000e+00 -6.123234e-17
    outer loop
      vertex -1.961570e+00 6.817500e+00 2.540181e+00
      vertex -1.865986e+00 6.817500e+00 2.869790e+00
      vertex -9.857962e-01 6.817500e+00 3.890174e+00
    endloop
  endfacet
  facet normal 0.000000e+00 1.000000e+00 -6.123234e-17
    outer loop
      vertex 6.737797e-01 6.817500e+00 4.033088e+00
      vertex 9.857962e-01 6.817500e+00 3.890174e+00
      vertex -1.999398e+00 6.817500e+00 2.199082e+00
    endloop
  endfacet
  facet normal 0.000000e+00 1.000000e+00 -6.123234e-17
    outer loop
      vertex -1.999398e+00 6.817500e+00 2.199082e+00
      vertex 9.857962e-01 6.817500e+00 3.890174e+00
      vertex 1.268787e+00 6.817500e+00 3.696021e+00
    endloop
  endfacet
  facet normal 0.000000e+00 1.000000e+00 -6.123234e-17
    outer loop
      vertex 1.899056e+00 6.817500e+00 1.522637e+00
      vertex 1.763843e+00 6.817500e+00 1.207206e+00
      vertex -7.653670e-01 6.817500e+00 3.022409e-01
    endloop
  endfacet
  facet normal 0.000000e+00 1.000000e+00 -6.123234e-17
    outer loop
      vertex -7.653670e-01 6.817500e+00 3.022409e-01
      vertex 1.763843e+00 6.817500e+00 1.207206e+00
      vertex 1.576693e+00 6.817500e+00 9.195368e-01
    endloop
  endfacet
  facet normal 0.000000e+00 1.000000e+00 -6.123234e-17
    outer loop
      vertex -7.653670e-01 6.817500e+00 3.022409e-01
      vertex 1.576693e+00 6.817500e+00 9.195368e-01
      vertex 1.343118e+00 6.817500e+00 6.680977e-01
    endloop
  endfacet
  facet normal 0.000000e+00 1.000000e+00 -6.123234e-17
    outer loop
      vertex 7.653670e-01 6.817500e+00 1.438960e-16
      vertex -7.653670e-01 6.817500e+00 1.438960e-16
      vertex 7.653670e-01 6.817500e+00 3.022409e-01
    endloop
  endfacet
  facet normal 0.000000e+00 1.000000e+00 -6.123234e-17
    outer loop
      vertex 7.653670e-01 6.817500e+00 3.022409e-01
      vertex -7.653670e-01 6.817500e+00 1.438960e-16
      vertex -7.653670e-01 6.817500e+00 3.022409e-01
    endloop
  endfacet
  facet normal 0.000000e+00 1.000000e+00 -6.123234e-17
    outer loop
      vertex 7.653670e-01 6.817500e+00 3.022409e-01
      vertex -7.653670e-01 6.817500e+00 3.022409e-01
      vertex 1.069995e+00 6.817500e+00 4.602928e-01
    endloop
  endfacet
  facet normal 0.000000e+00 1.000000e+00 -6.123234e-17
    outer loop
      vertex 1.069995e+00 6.817500e+00 4.602928e-01
      vertex -7.653670e-01 6.817500e+00 3.022409e-01
      vertex 1.343118e+00 6.817500e+00 6.680977e-01
    endloop
  endfacet
  facet normal 0.000000e+00 1.000000e+00 -6.123234e-17
    outer loop
      vertex -1.343118e+00 6.817500e+00 6.680977e-01
      vertex -1.576693e+00 6.817500e+00 9.195368e-01
      vertex 1.999397e+00 6.817500e+00 2.199082e+00
    endloop
  endfacet
  facet normal 0.000000e+00 1.000000e+00 -6.123234e-17
    outer loop
      vertex 1.999397e+00 6.817500e+00 2.199082e+00
      vertex -1.576693e+00 6.817500e+00 9.195368e-01
      vertex -1.763842e+00 6.817500e+00 1.207206e+00
    endloop
  endfacet
  facet normal 0.000000e+00 1.000000e+00 -6.123234e-17
    outer loop
      vertex 1.999397e+00 6.817500e+00 2.199082e+00
      vertex -1.763842e+00 6.817500e+00 1.207206e+00
      vertex -1.899056e+00 6.817500e+00 1.522637e+00
    endloop
  endfacet
  facet normal 0.000000e+00 1.000000e+00 -6.123234e-17
    outer loop
      vertex -9.857962e-01 6.817500e+00 3.890174e+00
      vertex -1.865986e+00 6.817500e+00 2.869790e+00
      vertex -1.268787e+00 6.817500e+00 3.696021e+00
    endloop
  endfacet
  facet normal 0.000000e+00 1.000000e+00 -6.123234e-17
    outer loop
      vertex -1.268787e+00 6.817500e+00 3.696021e+00
      vertex -1.865986e+00 6.817500e+00 2.869790e+00
      vertex -1.715457e+00 6.817500e+00 3.178205e+00
    endloop
  endfacet
  facet normal 0.000000e+00 1.000000e+00 -6.123234e-17
    outer loop
      vertex -1.268787e+00 6.817500e+00 3.696021e+00
      vertex -1.715457e+00 6.817500e+00 3.178205e+00
      vertex -1.514418e+00 6.817500e+00 3.456346e+00
    endloop
  endfacet
  facet normal 0.000000e+00 1.000000e+00 -6.123234e-17
    outer loop
      vertex -1.961570e+00 6.817500e+00 2.540181e+00
      vertex -9.857962e-01 6.817500e+00 3.890174e+00
      vertex -1.999398e+00 6.817500e+00 2.199082e+00
    endloop
  endfacet
  facet normal 0.000000e+00 1.000000e+00 -6.123234e-17
    outer loop
      vertex -1.999398e+00 6.817500e+00 2.199082e+00
      vertex -9.857962e-01 6.817500e+00 3.890174e+00
      vertex -6.737797e-01 6.817500e+00 4.033088e+00
    endloop
  endfacet
  facet normal 0.000000e+00 1.000000e+00 -6.123234e-17
    outer loop
      vertex -1.999398e+00 6.817500e+00 2.199082e+00
      vertex -6.737797e-01 6.817500e+00 4.033088e+00
      vertex -3.419240e-01 6.817500e+00 4.120555e+00
    endloop
  endfacet
  facet normal 0.000000e+00 1.000000e+00 -6.123234e-17
    outer loop
      vertex 1.268787e+00 6.817500e+00 3.696021e+00
      vertex 1.514418e+00 6.817500e+00 3.456346e+00
      vertex -1.999398e+00 6.817500e+00 2.199082e+00
    endloop
  endfacet
  facet normal 0.000000e+00 1.000000e+00 -6.123234e-17
    outer loop
      vertex -1.999398e+00 6.817500e+00 2.199082e+00
      vertex 1.514418e+00 6.817500e+00 3.456346e+00
      vertex 1.715457e+00 6.817500e+00 3.178205e+00
    endloop
  endfacet
  facet normal 0.000000e+00 1.000000e+00 -6.123234e-17
    outer loop
      vertex -1.999398e+00 6.817500e+00 2.199082e+00
      vertex 1.715457e+00 6.817500e+00 3.178205e+00
      vertex 1.865985e+00 6.817500e+00 2.869790e+00
    endloop
  endfacet
  facet normal 0.000000e+00 1.000000e+00 -6.123234e-17
    outer loop
      vertex 1.865985e+00 6.817500e+00 2.869790e+00
      vertex 1.961571e+00 6.817500e+00 2.540181e+00
      vertex -1.999398e+00 6.817500e+00 2.199082e+00
    endloop
  endfacet
  facet normal 0.000000e+00 1.000000e+00 -6.123234e-17
    outer loop
      vertex -1.999398e+00 6.817500e+00 2.199082e+00
      vertex 1.961571e+00 6.817500e+00 2.540181e+00
      vertex 1.999397e+00 6.817500e+00 2.199082e+00
    endloop
  endfacet
  facet normal 0.000000e+00 1.000000e+00 -6.123234e-17
    outer loop
      vertex -1.999398e+00 6.817500e+00 2.199082e+00
      vertex 1.999397e+00 6.817500e+00 2.199082e+00
      vertex -1.978353e+00 6.817500e+00 1.856539e+00
    endloop
  endfacet
  facet normal 0.000000e+00 1.000000e+00 -6.123234e-17
    outer loop
      vertex -1.978353e+00 6.817500e+00 1.856539e+00
      vertex 1.999397e+00 6.817500e+00 2.199082e+00
      vertex -1.899056e+00 6.817500e+00 1.522637e+00
    endloop
  endfacet
  facet normal 0.000000e+00 1.000000e+00 -6.123234e-17
    outer loop
      vertex -3.419240e-01 6.817500e+00 4.120555e+00
      vertex 0.000000e+00 6.817500e+00 4.150000e+00
      vertex -1.999398e+00 6.817500e+00 2.199082e+00
    endloop
  endfacet
  facet normal 0.000000e+00 1.000000e+00 -6.123234e-17
    outer loop
      vertex -1.999398e+00 6.817500e+00 2.199082e+00
      vertex 0.000000e+00 6.817500e+00 4.150000e+00
      vertex 3.419240e-01 6.817500e+00 4.120555e+00
    endloop
  endfacet
  facet normal 0.000000e+00 1.000000e+00 -6.123234e-17
    outer loop
      vertex -1.999398e+00 6.817500e+00 2.199082e+00
      vertex 3.419240e-01 6.817500e+00 4.120555e+00
      vertex 6.737797e-01 6.817500e+00 4.033088e+00
    endloop
  endfacet
  facet normal 8.660254e-01 3.061617e-17 5.000000e-01
    outer loop
      vertex 1.750000e-01 5.567500e+00 3.296891e+00
      vertex 1.750000e-01 -8.917500e+00 3.296891e+00
      vertex 1.847521e+00 5.567500e+00 4.000000e-01
    endloop
  endfacet
  facet normal 8.660254e-01 3.061617e-17 5.000000e-01
    outer loop
      vertex 1.847521e+00 5.567500e+00 4.000000e-01
      vertex 1.750000e-01 -8.917500e+00 3.296891e+00
      vertex 1.903461e+00 -8.917500e+00 3.031088e-01
    endloop
  endfacet
  facet normal 8.660254e-01 3.061617e-17 5.000000e-01
    outer loop
      vertex 1.847521e+00 5.567500e+00 4.000000e-01
      vertex 1.903461e+00 -8.917500e+00 3.031088e-01
      vertex 1.903461e+00 5.664391e+00 3.031088e-01
    endloop
  endfacet
  facet normal -8.660254e-01 3.061617e-17 5.000000e-01
    outer loop
      vertex -1.750000e-01 -8.917500e+00 3.296891e+00
      vertex -1.750000e-01 5.567500e+00 3.296891e+00
      vertex -1.903461e+00 -8.917500e+00 3.031088e-01
    endloop
  endfacet
  facet normal -8.660254e-01 3.061617e-17 5.000000e-01
    outer loop
      vertex -1.903461e+00 -8.917500e+00 3.031088e-01
      vertex -1.750000e-01 5.567500e+00 3.296891e+00
      vertex -1.847521e+00 5.567500e+00 4.000000e-01
    endloop
  endfacet
  facet normal -8.660254e-01 3.061617e-17 5.000000e-01
    outer loop
      vertex -1.903461e+00 -8.917500e+00 3.031088e-01
      vertex -1.847521e+00 5.567500e+00 4.000000e-01
      vertex -1.903461e+00 5.664391e+00 3.031088e-01
    endloop
  endfacet
  facet normal 0.000000e+00 -6.123234e-17 -1.000000e+00
    outer loop
      vertex 7.653670e-01 6.817500e+00 1.438960e-16
      vertex 7.653670e-01 8.767500e+00 2.449293e-17
      vertex 2.600000e+00 8.767500e+00 2.449293e-17
    endloop
  endfacet
  facet normal 0.000000e+00 -6.123234e-17 -1.000000e+00
    outer loop
      vertex -2.600000e+00 8.767500e+00 2.449293e-17
      vertex -7.653670e-01 8.767500e+00 2.449293e-17
      vertex -7.653670e-01 6.817500e+00 1.438960e-16
    endloop
  endfacet
  facet normal 0.000000e+00 -6.123234e-17 -1.000000e+00
    outer loop
      vertex -2.600000e+00 8.767500e+00 2.449293e-17
      vertex -7.653670e-01 6.817500e+00 1.438960e-16
      vertex -2.600000e+00 5.967500e+00 1.959435e-16
    endloop
  endfacet
  facet normal 0.000000e+00 -6.123234e-17 -1.000000e+00
    outer loop
      vertex 1.600352e+00 -8.917500e+00 1.107387e-15
      vertex -1.600352e+00 -8.917500e+00 1.107387e-15
      vertex 1.600352e+00 5.967500e+00 1.959435e-16
    endloop
  endfacet
  facet normal 0.000000e+00 -6.123234e-17 -1.000000e+00
    outer loop
      vertex 1.600352e+00 5.967500e+00 1.959435e-16
      vertex -1.600352e+00 -8.917500e+00 1.107387e-15
      vertex -1.600352e+00 5.967500e+00 1.959435e-16
    endloop
  endfacet
  facet normal 0.000000e+00 -6.123234e-17 -1.000000e+00
    outer loop
      vertex -2.600000e+00 5.967500e+00 1.959435e-16
      vertex -7.653670e-01 6.817500e+00 1.438960e-16
      vertex -1.600352e+00 5.967500e+00 1.959435e-16
    endloop
  endfacet
  facet normal 0.000000e+00 -6.123234e-17 -1.000000e+00
    outer loop
      vertex -1.600352e+00 5.967500e+00 1.959435e-16
      vertex -7.653670e-01 6.817500e+00 1.438960e-16
      vertex 7.653670e-01 6.817500e+00 1.438960e-16
    endloop
  endfacet
  facet normal 0.000000e+00 -6.123234e-17 -1.000000e+00
    outer loop
      vertex -1.600352e+00 5.967500e+00 1.959435e-16
      vertex 7.653670e-01 6.817500e+00 1.438960e-16
      vertex 1.600352e+00 5.967500e+00 1.959435e-16
    endloop
  endfacet
  facet normal 0.000000e+00 -6.123234e-17 -1.000000e+00
    outer loop
      vertex 1.600352e+00 5.967500e+00 1.959435e-16
      vertex 7.653670e-01 6.817500e+00 1.438960e-16
      vertex 2.600000e+00 8.767500e+00 2.449293e-17
    endloop
  endfacet
  facet normal 0.000000e+00 -6.123234e-17 -1.000000e+00
    outer loop
      vertex 1.600352e+00 5.967500e+00 1.959435e-16
      vertex 2.600000e+00 8.767500e+00 2.449293e-17
      vertex 2.600000e+00 5.967500e+00 1.959435e-16
    endloop
  endfacet
  facet normal 0.000000e+00 -1.000000e+00 6.123234e-17
    outer loop
      vertex 1.496799e+00 -9.167500e+00 2.499999e-01
      vertex 1.591039e+00 -9.167500e+00 3.442400e-01
      vertex 3.066254e-02 -9.167500e+00 3.046891e+00
    endloop
  endfacet
  facet normal 0.000000e+00 -1.000000e+00 6.123234e-17
    outer loop
      vertex 1.496799e+00 -9.167500e+00 2.499999e-01
      vertex 3.066254e-02 -9.167500e+00 3.046891e+00
      vertex -1.496799e+00 -9.167500e+00 2.499999e-01
    endloop
  endfacet
  facet normal 0.000000e+00 -1.000000e+00 6.123234e-17
    outer loop
      vertex -1.496799e+00 -9.167500e+00 2.499999e-01
      vertex 3.066254e-02 -9.167500e+00 3.046891e+00
      vertex -3.066230e-02 -9.167500e+00 3.046891e+00
    endloop
  endfacet
  facet normal 0.000000e+00 -1.000000e+00 6.123234e-17
    outer loop
      vertex -1.496799e+00 -9.167500e+00 2.499999e-01
      vertex -3.066230e-02 -9.167500e+00 3.046891e+00
      vertex -1.591039e+00 -9.167500e+00 3.442400e-01
    endloop
  endfacet
  facet normal 8.660254e-01 3.061617e-17 5.000000e-01
    outer loop
      vertex 3.000000e+00 9.167500e+00 4.800000e+00
      vertex 0.000000e+00 9.167500e+00 9.996153e+00
      vertex 3.000000e+00 5.567500e+00 4.800000e+00
    endloop
  endfacet
  facet normal 8.660254e-01 3.061617e-17 5.000000e-01
    outer loop
      vertex 3.000000e+00 5.567500e+00 4.800000e+00
      vertex 0.000000e+00 9.167500e+00 9.996153e+00
      vertex 0.000000e+00 5.567500e+00 9.996153e+00
    endloop
  endfacet
  facet normal -8.660254e-01 3.061617e-17 5.000000e-01
    outer loop
      vertex 0.000000e+00 9.167500e+00 9.996153e+00
      vertex -3.000000e+00 9.167500e+00 4.800000e+00
      vertex 0.000000e+00 5.567500e+00 9.996153e+00
    endloop
  endfacet
  facet normal -8.660254e-01 3.061617e-17 5.000000e-01
    outer loop
      vertex 0.000000e+00 5.567500e+00 9.996153e+00
      vertex -3.000000e+00 9.167500e+00 4.800000e+00
      vertex -3.000000e+00 5.567500e+00 4.800000e+00
    endloop
  endfacet
  facet normal 1.000000e+00 0.000000e+00 0.000000e+00
    outer loop
      vertex -7.653670e-01 9.069740e+00 3.022409e-01
      vertex -7.653670e-01 6.817500e+00 3.022409e-01
      vertex -7.653670e-01 8.767500e+00 2.449293e-17
    endloop
  endfacet
  facet normal 1.000000e+00 0.000000e+00 0.000000e+00
    outer loop
      vertex -7.653670e-01 8.767500e+00 2.449293e-17
      vertex -7.653670e-01 6.817500e+00 3.022409e-01
      vertex -7.653670e-01 6.817500e+00 1.438960e-16
    endloop
  endfacet
  facet normal -1.000000e+00 2.196533e-32 3.587211e-16
    outer loop
      vertex 7.653670e-01 8.767500e+00 2.449293e-17
      vertex 7.653670e-01 6.817500e+00 1.438960e-16
      vertex 7.653670e-01 9.069740e+00 3.022409e-01
    endloop
  endfacet
  facet normal -1.000000e+00 2.196533e-32 3.587211e-16
    outer loop
      vertex 7.653670e-01 9.069740e+00 3.022409e-01
      vertex 7.653670e-01 6.817500e+00 1.438960e-16
      vertex 7.653670e-01 6.817500e+00 3.022409e-01
    endloop
  endfacet
  facet normal -7.071068e-01 -4.329780e-17 -7.071068e-01
    outer loop
      vertex -1.903461e+00 -8.917500e+00 3.031088e-01
      vertex -1.903461e+00 5.664391e+00 3.031088e-01
      vertex -1.600352e+00 -8.917500e+00 1.107387e-15
    endloop
  endfacet
  facet normal -7.071068e-01 -4.329780e-17 -7.071068e-01
    outer loop
      vertex -1.600352e+00 -8.917500e+00 1.107387e-15
      vertex -1.903461e+00 5.664391e+00 3.031088e-01
      vertex -1.600352e+00 5.967500e+00 1.959435e-16
    endloop
  endfacet
  facet normal 7.071068e-01 -4.329780e-17 -7.071068e-01
    outer loop
      vertex 1.600352e+00 -8.917500e+00 1.107387e-15
      vertex 1.600352e+00 5.967500e+00 1.959435e-16
      vertex 1.903461e+00 -8.917500e+00 3.031088e-01
    endloop
  endfacet
  facet normal 7.071068e-01 -4.329780e-17 -7.071068e-01
    outer loop
      vertex 1.903461e+00 -8.917500e+00 3.031088e-01
      vertex 1.600352e+00 5.967500e+00 1.959435e-16
      vertex 1.903461e+00 5.664391e+00 3.031088e-01
    endloop
  endfacet
  facet normal 0.000000e+00 7.071068e-01 -7.071068e-01
    outer loop
      vertex 3.000000e+00 9.167500e+00 4.000000e-01
      vertex 2.600000e+00 8.767500e+00 2.449293e-17
      vertex 9.682457e-01 9.167500e+00 4.000000e-01
    endloop
  endfacet
  facet normal 0.000000e+00 7.071068e-01 -7.071068e-01
    outer loop
      vertex 9.682457e-01 9.167500e+00 4.000000e-01
      vertex 2.600000e+00 8.767500e+00 2.449293e-17
      vertex 7.653670e-01 8.767500e+00 2.449293e-17
    endloop
  endfacet
  facet normal 0.000000e+00 7.071068e-01 -7.071068e-01
    outer loop
      vertex 9.682457e-01 9.167500e+00 4.000000e-01
      vertex 7.653670e-01 8.767500e+00 2.449293e-17
      vertex 7.653670e-01 9.069740e+00 3.022409e-01
    endloop
  endfacet
  facet normal 7.071068e-01 -4.329780e-17 -7.071068e-01
    outer loop
      vertex 3.000000e+00 5.567500e+00 4.000000e-01
      vertex 2.600000e+00 5.967500e+00 1.959435e-16
      vertex 3.000000e+00 9.167500e+00 4.000000e-01
    endloop
  endfacet
  facet normal 7.071068e-01 -4.329780e-17 -7.071068e-01
    outer loop
      vertex 3.000000e+00 9.167500e+00 4.000000e-01
      vertex 2.600000e+00 5.967500e+00 1.959435e-16
      vertex 2.600000e+00 8.767500e+00 2.449293e-17
    endloop
  endfacet
  facet normal 0.000000e+00 -7.071068e-01 -7.071068e-01
    outer loop
      vertex 1.600352e+00 5.967500e+00 1.959435e-16
      vertex 2.600000e+00 5.967500e+00 1.959435e-16
      vertex 1.903461e+00 5.664391e+00 3.031088e-01
    endloop
  endfacet
  facet normal 0.000000e+00 -7.071068e-01 -7.071068e-01
    outer loop
      vertex 1.903461e+00 5.664391e+00 3.031088e-01
      vertex 2.600000e+00 5.967500e+00 1.959435e-16
      vertex 3.000000e+00 5.567500e+00 4.000000e-01
    endloop
  endfacet
  facet normal 0.000000e+00 -7.071068e-01 -7.071068e-01
    outer loop
      vertex 1.903461e+00 5.664391e+00 3.031088e-01
      vertex 3.000000e+00 5.567500e+00 4.000000e-01
      vertex 1.847521e+00 5.567500e+00 4.000000e-01
    endloop
  endfacet
  facet normal 0.000000e+00 7.071068e-01 -7.071068e-01
    outer loop
      vertex -2.600000e+00 8.767500e+00 2.449293e-17
      vertex -3.000000e+00 9.167500e+00 4.000000e-01
      vertex -7.653670e-01 8.767500e+00 2.449293e-17
    endloop
  endfacet
  facet normal 0.000000e+00 7.071068e-01 -7.071068e-01
    outer loop
      vertex -7.653670e-01 8.767500e+00 2.449293e-17
      vertex -3.000000e+00 9.167500e+00 4.000000e-01
      vertex -9.682457e-01 9.167500e+00 4.000000e-01
    endloop
  endfacet
  facet normal 0.000000e+00 7.071068e-01 -7.071068e-01
    outer loop
      vertex -7.653670e-01 8.767500e+00 2.449293e-17
      vertex -9.682457e-01 9.167500e+00 4.000000e-01
      vertex -7.653670e-01 9.069740e+00 3.022409e-01
    endloop
  endfacet
  facet normal -7.071068e-01 -4.329780e-17 -7.071068e-01
    outer loop
      vertex -2.600000e+00 5.967500e+00 1.959435e-16
      vertex -3.000000e+00 5.567500e+00 4.000000e-01
      vertex -2.600000e+00 8.767500e+00 2.449293e-17
    endloop
  endfacet
  facet normal -7.071068e-01 -4.329780e-17 -7.071068e-01
    outer loop
      vertex -2.600000e+00 8.767500e+00 2.449293e-17
      vertex -3.000000e+00 5.567500e+00 4.000000e-01
      vertex -3.000000e+00 9.167500e+00 4.000000e-01
    endloop
  endfacet
  facet normal 0.000000e+00 -7.071068e-01 -7.071068e-01
    outer loop
      vertex -2.600000e+00 5.967500e+00 1.959435e-16
      vertex -1.600352e+00 5.967500e+00 1.959435e-16
      vertex -3.000000e+00 5.567500e+00 4.000000e-01
    endloop
  endfacet
  facet normal 0.000000e+00 -7.071068e-01 -7.071068e-01
    outer loop
      vertex -3.000000e+00 5.567500e+00 4.000000e-01
      vertex -1.600352e+00 5.967500e+00 1.959435e-16
      vertex -1.903461e+00 5.664391e+00 3.031088e-01
    endloop
  endfacet
  facet normal 0.000000e+00 -7.071068e-01 -7.071068e-01
    outer loop
      vertex -3.000000e+00 5.567500e+00 4.000000e-01
      vertex -1.903461e+00 5.664391e+00 3.031088e-01
      vertex -1.847521e+00 5.567500e+00 4.000000e-01
    endloop
  endfacet
  facet normal 6.195441e-16 6.123234e-17 1.000000e+00
    outer loop
      vertex 1.750000e-01 -8.917500e+00 3.296891e+00
      vertex 1.750000e-01 5.567500e+00 3.296891e+00
      vertex -1.750000e-01 -8.917500e+00 3.296891e+00
    endloop
  endfacet
  facet normal 6.195441e-16 6.123234e-17 1.000000e+00
    outer loop
      vertex -1.750000e-01 -8.917500e+00 3.296891e+00
      vertex 1.750000e-01 5.567500e+00 3.296891e+00
      vertex -1.750000e-01 5.567500e+00 3.296891e+00
    endloop
  endfacet
  facet normal 0.000000e+00 -9.983119e-01 -5.807913e-02
    outer loop
      vertex 1.496799e+00 -9.167500e+00 2.499999e-01
      vertex -1.496799e+00 -9.167500e+00 2.499999e-01
      vertex -1.514781e+00 -9.163702e+00 2.065880e-01
    endloop
  endfacet
  facet normal 0.000000e+00 -9.932307e-01 -1.161583e-01
    outer loop
      vertex 1.496799e+00 -9.167500e+00 2.499999e-01
      vertex -1.514781e+00 -9.163702e+00 2.065880e-01
      vertex 1.514781e+00 -9.163702e+00 2.065880e-01
    endloop
  endfacet
  facet normal 0.000000e+00 -9.730600e-01 -2.305519e-01
    outer loop
      vertex 1.514781e+00 -9.163702e+00 2.065880e-01
      vertex -1.514781e+00 -9.163702e+00 2.065880e-01
      vertex -1.532216e+00 -9.152424e+00 1.644950e-01
    endloop
  endfacet
  facet normal 0.000000e+00 -9.579706e-01 -2.868663e-01
    outer loop
      vertex 1.514781e+00 -9.163702e+00 2.065880e-01
      vertex -1.532216e+00 -9.152424e+00 1.644950e-01
      vertex 1.532216e+00 -9.152424e+00 1.644950e-01
    endloop
  endfacet
  facet normal 0.000000e+00 -9.182422e-01 -3.960194e-01
    outer loop
      vertex 1.532216e+00 -9.152424e+00 1.644950e-01
      vertex -1.532216e+00 -9.152424e+00 1.644950e-01
      vertex -1.548575e+00 -9.134007e+00 1.250000e-01
    endloop
  endfacet
  facet normal 0.000000e+00 -8.936031e-01 -4.488580e-01
    outer loop
      vertex 1.532216e+00 -9.152424e+00 1.644950e-01
      vertex -1.548575e+00 -9.134007e+00 1.250000e-01
      vertex 1.548575e+00 -9.134007e+00 1.250000e-01
    endloop
  endfacet
  facet normal 0.000000e+00 -8.355240e-01 -5.494540e-01
    outer loop
      vertex 1.548575e+00 -9.134007e+00 1.250000e-01
      vertex -1.548575e+00 -9.134007e+00 1.250000e-01
      vertex -1.563362e+00 -9.109011e+00 8.930312e-02
    endloop
  endfacet
  facet normal 0.000000e+00 -8.020840e-01 -5.972114e-01
    outer loop
      vertex 1.548575e+00 -9.134007e+00 1.250000e-01
      vertex -1.563362e+00 -9.109011e+00 8.930312e-02
      vertex 1.563361e+00 -9.109011e+00 8.930312e-02
    endloop
  endfacet
  facet normal 0.000000e+00 -7.274188e-01 -6.861938e-01
    outer loop
      vertex 1.563361e+00 -9.109011e+00 8.930312e-02
      vertex -1.563362e+00 -9.109011e+00 8.930312e-02
      vertex -1.576125e+00 -9.078197e+00 5.848880e-02
    endloop
  endfacet
  facet normal 0.000000e+00 -6.861938e-01 -7.274188e-01
    outer loop
      vertex 1.563361e+00 -9.109011e+00 8.930312e-02
      vertex -1.576125e+00 -9.078197e+00 5.848880e-02
      vertex 1.576125e+00 -9.078197e+00 5.848880e-02
    endloop
  endfacet
  facet normal 0.000000e+00 -6.202419e-01 -7.844105e-01
    outer loop
      vertex 1.576125e+00 -9.078197e+00 5.848880e-02
      vertex -1.576125e+00 -9.078197e+00 5.848880e-02
      vertex 1.581625e+00 -9.060896e+00 4.521199e-02
    endloop
  endfacet
  facet normal 0.000000e+00 -5.971520e-01 -8.021281e-01
    outer loop
      vertex 1.581625e+00 -9.060896e+00 4.521199e-02
      vertex -1.576125e+00 -9.078197e+00 5.848880e-02
      vertex -1.581625e+00 -9.060896e+00 4.521199e-02
    endloop
  endfacet
  facet normal 0.000000e+00 -5.495158e-01 -8.354833e-01
    outer loop
      vertex 1.581625e+00 -9.060896e+00 4.521199e-02
      vertex -1.581625e+00 -9.060896e+00 4.521199e-02
      vertex 1.586479e+00 -9.042500e+00 3.349362e-02
    endloop
  endfacet
  facet normal 0.000000e+00 -2.306239e-01 -9.730430e-01
    outer loop
      vertex -1.598779e+00 -8.960913e+00 3.798050e-03
      vertex 1.596824e+00 -8.982206e+00 8.518458e-03
      vertex -1.596824e+00 -8.982206e+00 8.518458e-03
    endloop
  endfacet
  facet normal 0.000000e+00 -2.867954e-01 -9.579919e-01
    outer loop
      vertex -1.596824e+00 -8.982206e+00 8.518458e-03
      vertex 1.596824e+00 -8.982206e+00 8.518458e-03
      vertex 1.594107e+00 -9.003006e+00 1.507683e-02
    endloop
  endfacet
  facet normal 0.000000e+00 -3.145525e-01 -9.492400e-01
    outer loop
      vertex -1.596824e+00 -8.982206e+00 8.518458e-03
      vertex 1.594107e+00 -9.003006e+00 1.507683e-02
      vertex -1.594107e+00 -9.003006e+00 1.507683e-02
    endloop
  endfacet
  facet normal 0.000000e+00 -3.691985e-01 -9.293506e-01
    outer loop
      vertex -1.594107e+00 -9.003006e+00 1.507683e-02
      vertex 1.594107e+00 -9.003006e+00 1.507683e-02
      vertex 1.590650e+00 -9.023155e+00 2.342300e-02
    endloop
  endfacet
  facet normal 0.000000e+00 -3.960873e-01 -9.182128e-01
    outer loop
      vertex -1.594107e+00 -9.003006e+00 1.507683e-02
      vertex 1.590650e+00 -9.023155e+00 2.342300e-02
      vertex -1.590650e+00 -9.023155e+00 2.342300e-02
    endloop
  endfacet
  facet normal 0.000000e+00 -4.487918e-01 -8.936363e-01
    outer loop
      vertex -1.590650e+00 -9.023155e+00 2.342300e-02
      vertex 1.590650e+00 -9.023155e+00 2.342300e-02
      vertex 1.586479e+00 -9.042500e+00 3.349362e-02
    endloop
  endfacet
  facet normal 0.000000e+00 -4.746076e-01 -8.801975e-01
    outer loop
      vertex -1.590650e+00 -9.023155e+00 2.342300e-02
      vertex 1.586479e+00 -9.042500e+00 3.349362e-02
      vertex -1.586478e+00 -9.042500e+00 3.349362e-02
    endloop
  endfacet
  facet normal 0.000000e+00 -5.249696e-01 -8.511210e-01
    outer loop
      vertex -1.586478e+00 -9.042500e+00 3.349362e-02
      vertex 1.586479e+00 -9.042500e+00 3.349362e-02
      vertex -1.581625e+00 -9.060896e+00 4.521199e-02
    endloop
  endfacet
  facet normal 0.000000e+00 -2.907651e-02 -9.995772e-01
    outer loop
      vertex -1.600352e+00 -8.917500e+00 1.107387e-15
      vertex 1.600352e+00 -8.917500e+00 1.107387e-15
      vertex -1.599958e+00 -8.939289e+00 9.513460e-04
    endloop
  endfacet
  facet normal 0.000000e+00 -5.815303e-02 -9.983077e-01
    outer loop
      vertex -1.599958e+00 -8.939289e+00 9.513460e-04
      vertex 1.600352e+00 -8.917500e+00 1.107387e-15
      vertex 1.599958e+00 -8.939289e+00 9.513460e-04
    endloop
  endfacet
  facet normal 0.000000e+00 -1.160848e-01 -9.932393e-01
    outer loop
      vertex -1.599958e+00 -8.939289e+00 9.513460e-04
      vertex 1.599958e+00 -8.939289e+00 9.513460e-04
      vertex -1.598779e+00 -8.960913e+00 3.798050e-03
    endloop
  endfacet
  facet normal 0.000000e+00 -1.449400e-01 -9.894404e-01
    outer loop
      vertex -1.598779e+00 -8.960913e+00 3.798050e-03
      vertex 1.599958e+00 -8.939289e+00 9.513460e-04
      vertex 1.598779e+00 -8.960913e+00 3.798050e-03
    endloop
  endfacet
  facet normal 0.000000e+00 -2.022095e-01 -9.793423e-01
    outer loop
      vertex -1.598779e+00 -8.960913e+00 3.798050e-03
      vertex 1.598779e+00 -8.960913e+00 3.798050e-03
      vertex 1.596824e+00 -8.982206e+00 8.518458e-03
    endloop
  endfacet
  facet normal 4.852123e-01 -7.274188e-01 -4.852123e-01
    outer loop
      vertex 1.576125e+00 -9.078197e+00 5.848880e-02
      vertex 1.791860e+00 -9.109011e+00 3.178014e-01
      vertex 1.563361e+00 -9.109011e+00 8.930312e-02
    endloop
  endfacet
  facet normal 4.222922e-01 -8.020839e-01 -4.222922e-01
    outer loop
      vertex 1.563361e+00 -9.109011e+00 8.930312e-02
      vertex 1.791860e+00 -9.109011e+00 3.178014e-01
      vertex 1.747250e+00 -9.134007e+00 3.236744e-01
    endloop
  endfacet
  facet normal 3.885226e-01 -8.355240e-01 -3.885226e-01
    outer loop
      vertex 1.563361e+00 -9.109011e+00 8.930312e-02
      vertex 1.747250e+00 -9.134007e+00 3.236744e-01
      vertex 1.548575e+00 -9.134007e+00 1.250000e-01
    endloop
  endfacet
  facet normal 3.173905e-01 -8.936031e-01 -3.173905e-01
    outer loop
      vertex 1.548575e+00 -9.134007e+00 1.250000e-01
      vertex 1.747250e+00 -9.134007e+00 3.236744e-01
      vertex 1.697894e+00 -9.152424e+00 3.301724e-01
    endloop
  endfacet
  facet normal 2.800280e-01 -9.182422e-01 -2.800280e-01
    outer loop
      vertex 1.548575e+00 -9.134007e+00 1.250000e-01
      vertex 1.697894e+00 -9.152424e+00 3.301724e-01
      vertex 1.532216e+00 -9.152424e+00 1.644950e-01
    endloop
  endfacet
  facet normal 2.028451e-01 -9.579707e-01 -2.028451e-01
    outer loop
      vertex 1.532216e+00 -9.152424e+00 1.644950e-01
      vertex 1.697894e+00 -9.152424e+00 3.301724e-01
      vertex 1.645290e+00 -9.163702e+00 3.370977e-01
    endloop
  endfacet
  facet normal 1.630248e-01 -9.730601e-01 -1.630248e-01
    outer loop
      vertex 1.532216e+00 -9.152424e+00 1.644950e-01
      vertex 1.645290e+00 -9.163702e+00 3.370977e-01
      vertex 1.514781e+00 -9.163702e+00 2.065880e-01
    endloop
  endfacet
  facet normal 8.213630e-02 -9.932307e-01 -8.213630e-02
    outer loop
      vertex 1.514781e+00 -9.163702e+00 2.065880e-01
      vertex 1.645290e+00 -9.163702e+00 3.370977e-01
      vertex 1.591039e+00 -9.167500e+00 3.442400e-01
    endloop
  endfacet
  facet normal 4.106816e-02 -9.983121e-01 -4.106816e-02
    outer loop
      vertex 1.514781e+00 -9.163702e+00 2.065880e-01
      vertex 1.591039e+00 -9.167500e+00 3.442400e-01
      vertex 1.496799e+00 -9.167500e+00 2.499999e-01
    endloop
  endfacet
  facet normal 7.068078e-01 -2.907651e-02 -7.068078e-01
    outer loop
      vertex 1.600352e+00 -8.917500e+00 1.107387e-15
      vertex 1.903461e+00 -8.917500e+00 3.031088e-01
      vertex 1.599958e+00 -8.939289e+00 9.513460e-04
    endloop
  endfacet
  facet normal 7.059101e-01 -5.815303e-02 -7.059101e-01
    outer loop
      vertex 1.599958e+00 -8.939289e+00 9.513460e-04
      vertex 1.903461e+00 -8.917500e+00 3.031088e-01
      vertex 1.902272e+00 -8.939289e+00 3.032654e-01
    endloop
  endfacet
  facet normal 7.023262e-01 -1.160848e-01 -7.023262e-01
    outer loop
      vertex 1.599958e+00 -8.939289e+00 9.513460e-04
      vertex 1.902272e+00 -8.939289e+00 3.032654e-01
      vertex 1.598779e+00 -8.960913e+00 3.798050e-03
    endloop
  endfacet
  facet normal 6.996400e-01 -1.449400e-01 -6.996400e-01
    outer loop
      vertex 1.598779e+00 -8.960913e+00 3.798050e-03
      vertex 1.902272e+00 -8.939289e+00 3.032654e-01
      vertex 1.898715e+00 -8.960913e+00 3.037337e-01
    endloop
  endfacet
  facet normal 6.924996e-01 -2.022095e-01 -6.924996e-01
    outer loop
      vertex 1.598779e+00 -8.960913e+00 3.798050e-03
      vertex 1.898715e+00 -8.960913e+00 3.037337e-01
      vertex 1.596824e+00 -8.982206e+00 8.518458e-03
    endloop
  endfacet
  facet normal 6.880453e-01 -2.306239e-01 -6.880453e-01
    outer loop
      vertex 1.596824e+00 -8.982206e+00 8.518458e-03
      vertex 1.898715e+00 -8.960913e+00 3.037337e-01
      vertex 1.892816e+00 -8.982206e+00 3.045104e-01
    endloop
  endfacet
  facet normal 6.774026e-01 -2.867953e-01 -6.774026e-01
    outer loop
      vertex 1.596824e+00 -8.982206e+00 8.518458e-03
      vertex 1.892816e+00 -8.982206e+00 3.045104e-01
      vertex 1.594107e+00 -9.003006e+00 1.507683e-02
    endloop
  endfacet
  facet normal 6.712141e-01 -3.145525e-01 -6.712141e-01
    outer loop
      vertex 1.594107e+00 -9.003006e+00 1.507683e-02
      vertex 1.892816e+00 -8.982206e+00 3.045104e-01
      vertex 1.884620e+00 -9.003006e+00 3.055894e-01
    endloop
  endfacet
  facet normal 6.571501e-01 -3.691985e-01 -6.571501e-01
    outer loop
      vertex 1.594107e+00 -9.003006e+00 1.507683e-02
      vertex 1.884620e+00 -9.003006e+00 3.055894e-01
      vertex 1.590650e+00 -9.023155e+00 2.342300e-02
    endloop
  endfacet
  facet normal 6.492745e-01 -3.960873e-01 -6.492745e-01
    outer loop
      vertex 1.590650e+00 -9.023155e+00 2.342300e-02
      vertex 1.884620e+00 -9.003006e+00 3.055894e-01
      vertex 1.874189e+00 -9.023155e+00 3.069625e-01
    endloop
  endfacet
  facet normal 6.318963e-01 -4.487919e-01 -6.318963e-01
    outer loop
      vertex 1.590650e+00 -9.023155e+00 2.342300e-02
      vertex 1.874189e+00 -9.023155e+00 3.069625e-01
      vertex 1.586479e+00 -9.042500e+00 3.349362e-02
    endloop
  endfacet
  facet normal 6.223937e-01 -4.746076e-01 -6.223937e-01
    outer loop
      vertex 1.586479e+00 -9.042500e+00 3.349362e-02
      vertex 1.874189e+00 -9.023155e+00 3.069625e-01
      vertex 1.861604e+00 -9.042500e+00 3.086194e-01
    endloop
  endfacet
  facet normal 6.018335e-01 -5.249696e-01 -6.018335e-01
    outer loop
      vertex 1.586479e+00 -9.042500e+00 3.349362e-02
      vertex 1.861604e+00 -9.042500e+00 3.086194e-01
      vertex 1.581625e+00 -9.060896e+00 4.521199e-02
    endloop
  endfacet
  facet normal 5.907759e-01 -5.495158e-01 -5.907759e-01
    outer loop
      vertex 1.581625e+00 -9.060896e+00 4.521199e-02
      vertex 1.861604e+00 -9.042500e+00 3.086194e-01
      vertex 1.846960e+00 -9.060896e+00 3.105473e-01
    endloop
  endfacet
  facet normal 5.671902e-01 -5.971520e-01 -5.671902e-01
    outer loop
      vertex 1.581625e+00 -9.060896e+00 4.521199e-02
      vertex 1.846960e+00 -9.060896e+00 3.105473e-01
      vertex 1.576125e+00 -9.078197e+00 5.848880e-02
    endloop
  endfacet
  facet normal 5.546620e-01 -6.202419e-01 -5.546620e-01
    outer loop
      vertex 1.576125e+00 -9.078197e+00 5.848880e-02
      vertex 1.846960e+00 -9.060896e+00 3.105473e-01
      vertex 1.830368e+00 -9.078197e+00 3.127317e-01
    endloop
  endfacet
  facet normal 5.143628e-01 -6.861938e-01 -5.143628e-01
    outer loop
      vertex 1.576125e+00 -9.078197e+00 5.848880e-02
      vertex 1.830368e+00 -9.078197e+00 3.127317e-01
      vertex 1.791860e+00 -9.109011e+00 3.178014e-01
    endloop
  endfacet
  facet normal -7.068078e-01 -2.907651e-02 -7.068078e-01
    outer loop
      vertex -1.903461e+00 -8.917500e+00 3.031088e-01
      vertex -1.600352e+00 -8.917500e+00 1.107387e-15
      vertex -1.599958e+00 -8.939289e+00 9.513460e-04
    endloop
  endfacet
  facet normal -7.059101e-01 -5.815303e-02 -7.059101e-01
    outer loop
      vertex -1.903461e+00 -8.917500e+00 3.031088e-01
      vertex -1.599958e+00 -8.939289e+00 9.513460e-04
      vertex -1.902272e+00 -8.939289e+00 3.032654e-01
    endloop
  endfacet
  facet normal -7.023262e-01 -1.160848e-01 -7.023262e-01
    outer loop
      vertex -1.902272e+00 -8.939289e+00 3.032654e-01
      vertex -1.599958e+00 -8.939289e+00 9.513460e-04
      vertex -1.598779e+00 -8.960913e+00 3.798050e-03
    endloop
  endfacet
  facet normal -6.996400e-01 -1.449400e-01 -6.996400e-01
    outer loop
      vertex -1.902272e+00 -8.939289e+00 3.032654e-01
      vertex -1.598779e+00 -8.960913e+00 3.798050e-03
      vertex -1.898715e+00 -8.960913e+00 3.037337e-01
    endloop
  endfacet
  facet normal -6.924996e-01 -2.022095e-01 -6.924996e-01
    outer loop
      vertex -1.898715e+00 -8.960913e+00 3.037337e-01
      vertex -1.598779e+00 -8.960913e+00 3.798050e-03
      vertex -1.596824e+00 -8.982206e+00 8.518458e-03
    endloop
  endfacet
  facet normal -6.880453e-01 -2.306239e-01 -6.880453e-01
    outer loop
      vertex -1.898715e+00 -8.960913e+00 3.037337e-01
      vertex -1.596824e+00 -8.982206e+00 8.518458e-03
      vertex -1.892815e+00 -8.982206e+00 3.045104e-01
    endloop
  endfacet
  facet normal -6.774026e-01 -2.867953e-01 -6.774026e-01
    outer loop
      vertex -1.892815e+00 -8.982206e+00 3.045104e-01
      vertex -1.596824e+00 -8.982206e+00 8.518458e-03
      vertex -1.594107e+00 -9.003006e+00 1.507683e-02
    endloop
  endfacet
  facet normal -6.712141e-01 -3.145525e-01 -6.712141e-01
    outer loop
      vertex -1.892815e+00 -8.982206e+00 3.045104e-01
      vertex -1.594107e+00 -9.003006e+00 1.507683e-02
      vertex -1.884620e+00 -9.003006e+00 3.055894e-01
    endloop
  endfacet
  facet normal -6.571501e-01 -3.691985e-01 -6.571501e-01
    outer loop
      vertex -1.884620e+00 -9.003006e+00 3.055894e-01
      vertex -1.594107e+00 -9.003006e+00 1.507683e-02
      vertex -1.590650e+00 -9.023155e+00 2.342300e-02
    endloop
  endfacet
  facet normal -6.492745e-01 -3.960873e-01 -6.492745e-01
    outer loop
      vertex -1.884620e+00 -9.003006e+00 3.055894e-01
      vertex -1.590650e+00 -9.023155e+00 2.342300e-02
      vertex -1.874189e+00 -9.023155e+00 3.069625e-01
    endloop
  endfacet
  facet normal -6.318963e-01 -4.487919e-01 -6.318963e-01
    outer loop
      vertex -1.874189e+00 -9.023155e+00 3.069625e-01
      vertex -1.590650e+00 -9.023155e+00 2.342300e-02
      vertex -1.586478e+00 -9.042500e+00 3.349362e-02
    endloop
  endfacet
  facet normal -6.223937e-01 -4.746076e-01 -6.223937e-01
    outer loop
      vertex -1.874189e+00 -9.023155e+00 3.069625e-01
      vertex -1.586478e+00 -9.042500e+00 3.349362e-02
      vertex -1.861604e+00 -9.042500e+00 3.086194e-01
    endloop
  endfacet
  facet normal -6.018335e-01 -5.249696e-01 -6.018335e-01
    outer loop
      vertex -1.861604e+00 -9.042500e+00 3.086194e-01
      vertex -1.586478e+00 -9.042500e+00 3.349362e-02
      vertex -1.581625e+00 -9.060896e+00 4.521199e-02
    endloop
  endfacet
  facet normal -5.907759e-01 -5.495158e-01 -5.907759e-01
    outer loop
      vertex -1.861604e+00 -9.042500e+00 3.086194e-01
      vertex -1.581625e+00 -9.060896e+00 4.521199e-02
      vertex -1.846960e+00 -9.060896e+00 3.105473e-01
    endloop
  endfacet
  facet normal -5.671902e-01 -5.971520e-01 -5.671902e-01
    outer loop
      vertex -1.846960e+00 -9.060896e+00 3.105473e-01
      vertex -1.581625e+00 -9.060896e+00 4.521199e-02
      vertex -1.576125e+00 -9.078197e+00 5.848880e-02
    endloop
  endfacet
  facet normal -5.546620e-01 -6.202419e-01 -5.546620e-01
    outer loop
      vertex -1.846960e+00 -9.060896e+00 3.105473e-01
      vertex -1.576125e+00 -9.078197e+00 5.848880e-02
      vertex -1.830368e+00 -9.078197e+00 3.127317e-01
    endloop
  endfacet
  facet normal -5.143628e-01 -6.861938e-01 -5.143628e-01
    outer loop
      vertex -1.830368e+00 -9.078197e+00 3.127317e-01
      vertex -1.576125e+00 -9.078197e+00 5.848880e-02
      vertex -1.563362e+00 -9.109011e+00 8.930312e-02
    endloop
  endfacet
  facet normal -4.852123e-01 -7.274188e-01 -4.852123e-01
    outer loop
      vertex -1.830368e+00 -9.078197e+00 3.127317e-01
      vertex -1.563362e+00 -9.109011e+00 8.930312e-02
      vertex -1.791860e+00 -9.109011e+00 3.178014e-01
    endloop
  endfacet
  facet normal -4.222922e-01 -8.020839e-01 -4.222922e-01
    outer loop
      vertex -1.791860e+00 -9.109011e+00 3.178014e-01
      vertex -1.563362e+00 -9.109011e+00 8.930312e-02
      vertex -1.548575e+00 -9.134007e+00 1.250000e-01
    endloop
  endfacet
  facet normal -3.885226e-01 -8.355240e-01 -3.885226e-01
    outer loop
      vertex -1.791860e+00 -9.109011e+00 3.178014e-01
      vertex -1.548575e+00 -9.134007e+00 1.250000e-01
      vertex -1.747250e+00 -9.134007e+00 3.236744e-01
    endloop
  endfacet
  facet normal -3.173905e-01 -8.936031e-01 -3.173905e-01
    outer loop
      vertex -1.747250e+00 -9.134007e+00 3.236744e-01
      vertex -1.548575e+00 -9.134007e+00 1.250000e-01
      vertex -1.532216e+00 -9.152424e+00 1.644950e-01
    endloop
  endfacet
  facet normal -2.800280e-01 -9.182422e-01 -2.800280e-01
    outer loop
      vertex -1.747250e+00 -9.134007e+00 3.236744e-01
      vertex -1.532216e+00 -9.152424e+00 1.644950e-01
      vertex -1.697894e+00 -9.152424e+00 3.301724e-01
    endloop
  endfacet
  facet normal -2.028451e-01 -9.579707e-01 -2.028451e-01
    outer loop
      vertex -1.697894e+00 -9.152424e+00 3.301724e-01
      vertex -1.532216e+00 -9.152424e+00 1.644950e-01
      vertex -1.514781e+00 -9.163702e+00 2.065880e-01
    endloop
  endfacet
  facet normal -1.630248e-01 -9.730601e-01 -1.630248e-01
    outer loop
      vertex -1.697894e+00 -9.152424e+00 3.301724e-01
      vertex -1.514781e+00 -9.163702e+00 2.065880e-01
      vertex -1.645290e+00 -9.163702e+00 3.370977e-01
    endloop
  endfacet
  facet normal -8.213630e-02 -9.932307e-01 -8.213630e-02
    outer loop
      vertex -1.645290e+00 -9.163702e+00 3.370977e-01
      vertex -1.514781e+00 -9.163702e+00 2.065880e-01
      vertex -1.496799e+00 -9.167500e+00 2.499999e-01
    endloop
  endfacet
  facet normal -4.106816e-02 -9.983121e-01 -4.106816e-02
    outer loop
      vertex -1.645290e+00 -9.163702e+00 3.370977e-01
      vertex -1.496799e+00 -9.167500e+00 2.499999e-01
      vertex -1.591039e+00 -9.167500e+00 3.442400e-01
    endloop
  endfacet
  facet normal 8.656592e-01 -2.907651e-02 4.997886e-01
    outer loop
      vertex 1.903461e+00 -8.917500e+00 3.031088e-01
      vertex 1.750000e-01 -8.917500e+00 3.296891e+00
      vertex 1.744506e-01 -8.939289e+00 3.295940e+00
    endloop
  endfacet
  facet normal 8.645598e-01 -5.815303e-02 4.991539e-01
    outer loop
      vertex 1.903461e+00 -8.917500e+00 3.031088e-01
      vertex 1.744506e-01 -8.939289e+00 3.295940e+00
      vertex 1.902272e+00 -8.939289e+00 3.032654e-01
    endloop
  endfacet
  facet normal 8.601705e-01 -1.160848e-01 4.966197e-01
    outer loop
      vertex 1.902272e+00 -8.939289e+00 3.032654e-01
      vertex 1.744506e-01 -8.939289e+00 3.295940e+00
      vertex 1.728072e-01 -8.960913e+00 3.293093e+00
    endloop
  endfacet
  facet normal 8.568806e-01 -1.449400e-01 4.947202e-01
    outer loop
      vertex 1.902272e+00 -8.939289e+00 3.032654e-01
      vertex 1.728072e-01 -8.960913e+00 3.293093e+00
      vertex 1.898715e+00 -8.960913e+00 3.037337e-01
    endloop
  endfacet
  facet normal 8.481354e-01 -2.022095e-01 4.896711e-01
    outer loop
      vertex 1.898715e+00 -8.960913e+00 3.037337e-01
      vertex 1.728072e-01 -8.960913e+00 3.293093e+00
      vertex 1.700819e-01 -8.982206e+00 3.288373e+00
    endloop
  endfacet
  facet normal 8.426800e-01 -2.306239e-01 4.865215e-01
    outer loop
      vertex 1.898715e+00 -8.960913e+00 3.037337e-01
      vertex 1.700819e-01 -8.982206e+00 3.288373e+00
      vertex 1.892816e+00 -8.982206e+00 3.045104e-01
    endloop
  endfacet
  facet normal 8.296453e-01 -2.867954e-01 4.789959e-01
    outer loop
      vertex 1.892816e+00 -8.982206e+00 3.045104e-01
      vertex 1.700819e-01 -8.982206e+00 3.288373e+00
      vertex 1.662953e-01 -9.003006e+00 3.281814e+00
    endloop
  endfacet
  facet normal 8.220660e-01 -3.145525e-01 4.746200e-01
    outer loop
      vertex 1.892816e+00 -8.982206e+00 3.045104e-01
      vertex 1.662953e-01 -9.003006e+00 3.281814e+00
      vertex 1.884620e+00 -9.003006e+00 3.055894e-01
    endloop
  endfacet
  facet normal 8.048412e-01 -3.691985e-01 4.646753e-01
    outer loop
      vertex 1.884620e+00 -9.003006e+00 3.055894e-01
      vertex 1.662953e-01 -9.003006e+00 3.281814e+00
      vertex 1.614766e-01 -9.023155e+00 3.273468e+00
    endloop
  endfacet
  facet normal 7.951956e-01 -3.960873e-01 4.591064e-01
    outer loop
      vertex 1.884620e+00 -9.003006e+00 3.055894e-01
      vertex 1.614766e-01 -9.023155e+00 3.273468e+00
      vertex 1.874189e+00 -9.023155e+00 3.069625e-01
    endloop
  endfacet
  facet normal 7.739118e-01 -4.487918e-01 4.468182e-01
    outer loop
      vertex 1.874189e+00 -9.023155e+00 3.069625e-01
      vertex 1.614766e-01 -9.023155e+00 3.273468e+00
      vertex 1.556625e-01 -9.042500e+00 3.263397e+00
    endloop
  endfacet
  facet normal 7.622734e-01 -4.746076e-01 4.400987e-01
    outer loop
      vertex 1.874189e+00 -9.023155e+00 3.069625e-01
      vertex 1.556625e-01 -9.042500e+00 3.263397e+00
      vertex 1.861604e+00 -9.042500e+00 3.086194e-01
    endloop
  endfacet
  facet normal 7.370924e-01 -5.249696e-01 4.255605e-01
    outer loop
      vertex 1.861604e+00 -9.042500e+00 3.086194e-01
      vertex 1.556625e-01 -9.042500e+00 3.263397e+00
      vertex 1.488969e-01 -9.060896e+00 3.251679e+00
    endloop
  endfacet
  facet normal 7.235497e-01 -5.495158e-01 4.177416e-01
    outer loop
      vertex 1.861604e+00 -9.042500e+00 3.086194e-01
      vertex 1.488969e-01 -9.060896e+00 3.251679e+00
      vertex 1.846960e+00 -9.060896e+00 3.105473e-01
    endloop
  endfacet
  facet normal 6.946633e-01 -5.971520e-01 4.010641e-01
    outer loop
      vertex 1.846960e+00 -9.060896e+00 3.105473e-01
      vertex 1.488969e-01 -9.060896e+00 3.251679e+00
      vertex 1.412313e-01 -9.078197e+00 3.238402e+00
    endloop
  endfacet
  facet normal 6.793194e-01 -6.202419e-01 3.922052e-01
    outer loop
      vertex 1.846960e+00 -9.060896e+00 3.105473e-01
      vertex 1.412313e-01 -9.078197e+00 3.238402e+00
      vertex 1.830368e+00 -9.078197e+00 3.127317e-01
    endloop
  endfacet
  facet normal 6.299632e-01 -6.861938e-01 3.637094e-01
    outer loop
      vertex 1.830368e+00 -9.078197e+00 3.127317e-01
      vertex 1.412313e-01 -9.078197e+00 3.238402e+00
      vertex 1.234407e-01 -9.109011e+00 3.207588e+00
    endloop
  endfacet
  facet normal 5.942612e-01 -7.274188e-01 3.430969e-01
    outer loop
      vertex 1.830368e+00 -9.078197e+00 3.127317e-01
      vertex 1.234407e-01 -9.109011e+00 3.207588e+00
      vertex 1.791860e+00 -9.109011e+00 3.178014e-01
    endloop
  endfacet
  facet normal 5.172003e-01 -8.020840e-01 2.986057e-01
    outer loop
      vertex 1.791860e+00 -9.109011e+00 3.178014e-01
      vertex 1.234407e-01 -9.109011e+00 3.207588e+00
      vertex 1.028314e-01 -9.134007e+00 3.171891e+00
    endloop
  endfacet
  facet normal 4.758412e-01 -8.355240e-01 2.747270e-01
    outer loop
      vertex 1.791860e+00 -9.109011e+00 3.178014e-01
      vertex 1.028314e-01 -9.134007e+00 3.171891e+00
      vertex 1.747250e+00 -9.134007e+00 3.236744e-01
    endloop
  endfacet
  facet normal 3.887224e-01 -8.936031e-01 2.244290e-01
    outer loop
      vertex 1.747250e+00 -9.134007e+00 3.236744e-01
      vertex 1.028314e-01 -9.134007e+00 3.171891e+00
      vertex 8.002877e-02 -9.152424e+00 3.132396e+00
    endloop
  endfacet
  facet normal 3.429628e-01 -9.182422e-01 1.980097e-01
    outer loop
      vertex 1.747250e+00 -9.134007e+00 3.236744e-01
      vertex 8.002877e-02 -9.152424e+00 3.132396e+00
      vertex 1.697894e+00 -9.152424e+00 3.301724e-01
    endloop
  endfacet
  facet normal 2.484335e-01 -9.579706e-01 1.434331e-01
    outer loop
      vertex 1.697894e+00 -9.152424e+00 3.301724e-01
      vertex 8.002877e-02 -9.152424e+00 3.132396e+00
      vertex 5.572653e-02 -9.163702e+00 3.090303e+00
    endloop
  endfacet
  facet normal 1.996637e-01 -9.730600e-01 1.152759e-01
    outer loop
      vertex 1.697894e+00 -9.152424e+00 3.301724e-01
      vertex 5.572653e-02 -9.163702e+00 3.090303e+00
      vertex 1.645290e+00 -9.163702e+00 3.370977e-01
    endloop
  endfacet
  facet normal 1.005960e-01 -9.932307e-01 5.807914e-02
    outer loop
      vertex 1.645290e+00 -9.163702e+00 3.370977e-01
      vertex 5.572653e-02 -9.163702e+00 3.090303e+00
      vertex 3.066254e-02 -9.167500e+00 3.046891e+00
    endloop
  endfacet
  facet normal 5.029801e-02 -9.983121e-01 2.903957e-02
    outer loop
      vertex 1.645290e+00 -9.163702e+00 3.370977e-01
      vertex 3.066254e-02 -9.167500e+00 3.046891e+00
      vertex 1.591039e+00 -9.167500e+00 3.442400e-01
    endloop
  endfacet
  facet normal -8.656592e-01 -2.907651e-02 4.997886e-01
    outer loop
      vertex -1.750000e-01 -8.917500e+00 3.296891e+00
      vertex -1.903461e+00 -8.917500e+00 3.031088e-01
      vertex -1.744506e-01 -8.939289e+00 3.295940e+00
    endloop
  endfacet
  facet normal -8.645598e-01 -5.815303e-02 4.991539e-01
    outer loop
      vertex -1.744506e-01 -8.939289e+00 3.295940e+00
      vertex -1.903461e+00 -8.917500e+00 3.031088e-01
      vertex -1.902272e+00 -8.939289e+00 3.032654e-01
    endloop
  endfacet
  facet normal -8.601705e-01 -1.160848e-01 4.966197e-01
    outer loop
      vertex -1.744506e-01 -8.939289e+00 3.295940e+00
      vertex -1.902272e+00 -8.939289e+00 3.032654e-01
      vertex -1.728072e-01 -8.960913e+00 3.293093e+00
    endloop
  endfacet
  facet normal -8.568806e-01 -1.449400e-01 4.947202e-01
    outer loop
      vertex -1.728072e-01 -8.960913e+00 3.293093e+00
      vertex -1.902272e+00 -8.939289e+00 3.032654e-01
      vertex -1.898715e+00 -8.960913e+00 3.037337e-01
    endloop
  endfacet
  facet normal -8.481354e-01 -2.022095e-01 4.896711e-01
    outer loop
      vertex -1.728072e-01 -8.960913e+00 3.293093e+00
      vertex -1.898715e+00 -8.960913e+00 3.037337e-01
      vertex -1.700819e-01 -8.982206e+00 3.288373e+00
    endloop
  endfacet
  facet normal -8.426800e-01 -2.306239e-01 4.865215e-01
    outer loop
      vertex -1.700819e-01 -8.982206e+00 3.288373e+00
      vertex -1.898715e+00 -8.960913e+00 3.037337e-01
      vertex -1.892815e+00 -8.982206e+00 3.045104e-01
    endloop
  endfacet
  facet normal -8.296453e-01 -2.867954e-01 4.789959e-01
    outer loop
      vertex -1.700819e-01 -8.982206e+00 3.288373e+00
      vertex -1.892815e+00 -8.982206e+00 3.045104e-01
      vertex -1.662953e-01 -9.003006e+00 3.281814e+00
    endloop
  endfacet
  facet normal -8.220660e-01 -3.145525e-01 4.746200e-01
    outer loop
      vertex -1.662953e-01 -9.003006e+00 3.281814e+00
      vertex -1.892815e+00 -8.982206e+00 3.045104e-01
      vertex -1.884620e+00 -9.003006e+00 3.055894e-01
    endloop
  endfacet
  facet normal -8.048412e-01 -3.691985e-01 4.646753e-01
    outer loop
      vertex -1.662953e-01 -9.003006e+00 3.281814e+00
      vertex -1.884620e+00 -9.003006e+00 3.055894e-01
      vertex -1.614766e-01 -9.023155e+00 3.273468e+00
    endloop
  endfacet
  facet normal -7.951956e-01 -3.960873e-01 4.591064e-01
    outer loop
      vertex -1.614766e-01 -9.023155e+00 3.273468e+00
      vertex -1.884620e+00 -9.003006e+00 3.055894e-01
      vertex -1.874189e+00 -9.023155e+00 3.069625e-01
    endloop
  endfacet
  facet normal -7.739118e-01 -4.487918e-01 4.468182e-01
    outer loop
      vertex -1.614766e-01 -9.023155e+00 3.273468e+00
      vertex -1.874189e+00 -9.023155e+00 3.069625e-01
      vertex -1.556623e-01 -9.042500e+00 3.263397e+00
    endloop
  endfacet
  facet normal -7.622734e-01 -4.746076e-01 4.400987e-01
    outer loop
      vertex -1.556623e-01 -9.042500e+00 3.263397e+00
      vertex -1.874189e+00 -9.023155e+00 3.069625e-01
      vertex -1.861604e+00 -9.042500e+00 3.086194e-01
    endloop
  endfacet
  facet normal -7.370924e-01 -5.249696e-01 4.255605e-01
    outer loop
      vertex -1.556623e-01 -9.042500e+00 3.263397e+00
      vertex -1.861604e+00 -9.042500e+00 3.086194e-01
      vertex -1.488967e-01 -9.060896e+00 3.251679e+00
    endloop
  endfacet
  facet normal -7.235497e-01 -5.495158e-01 4.177416e-01
    outer loop
      vertex -1.488967e-01 -9.060896e+00 3.251679e+00
      vertex -1.861604e+00 -9.042500e+00 3.086194e-01
      vertex -1.846960e+00 -9.060896e+00 3.105473e-01
    endloop
  endfacet
  facet normal -6.946633e-01 -5.971520e-01 4.010641e-01
    outer loop
      vertex -1.488967e-01 -9.060896e+00 3.251679e+00
      vertex -1.846960e+00 -9.060896e+00 3.105473e-01
      vertex -1.412313e-01 -9.078197e+00 3.238402e+00
    endloop
  endfacet
  facet normal -6.793194e-01 -6.202419e-01 3.922052e-01
    outer loop
      vertex -1.846960e+00 -9.060896e+00 3.105473e-01
      vertex -1.830368e+00 -9.078197e+00 3.127317e-01
      vertex -1.412313e-01 -9.078197e+00 3.238402e+00
    endloop
  endfacet
  facet normal -6.299632e-01 -6.861938e-01 3.637094e-01
    outer loop
      vertex -1.412313e-01 -9.078197e+00 3.238402e+00
      vertex -1.830368e+00 -9.078197e+00 3.127317e-01
      vertex -1.791860e+00 -9.109011e+00 3.178014e-01
    endloop
  endfacet
  facet normal -5.942612e-01 -7.274188e-01 3.430969e-01
    outer loop
      vertex -1.412313e-01 -9.078197e+00 3.238402e+00
      vertex -1.791860e+00 -9.109011e+00 3.178014e-01
      vertex -1.234407e-01 -9.109011e+00 3.207588e+00
    endloop
  endfacet
  facet normal -5.172003e-01 -8.020840e-01 2.986057e-01
    outer loop
      vertex -1.234407e-01 -9.109011e+00 3.207588e+00
      vertex -1.791860e+00 -9.109011e+00 3.178014e-01
      vertex -1.747250e+00 -9.134007e+00 3.236744e-01
    endloop
  endfacet
  facet normal -4.758412e-01 -8.355240e-01 2.747270e-01
    outer loop
      vertex -1.234407e-01 -9.109011e+00 3.207588e+00
      vertex -1.747250e+00 -9.134007e+00 3.236744e-01
      vertex -1.028314e-01 -9.134007e+00 3.171891e+00
    endloop
  endfacet
  facet normal -3.887224e-01 -8.936031e-01 2.244290e-01
    outer loop
      vertex -1.028314e-01 -9.134007e+00 3.171891e+00
      vertex -1.747250e+00 -9.134007e+00 3.236744e-01
      vertex -1.697894e+00 -9.152424e+00 3.301724e-01
    endloop
  endfacet
  facet normal -3.429628e-01 -9.182422e-01 1.980097e-01
    outer loop
      vertex -1.028314e-01 -9.134007e+00 3.171891e+00
      vertex -1.697894e+00 -9.152424e+00 3.301724e-01
      vertex -8.002877e-02 -9.152424e+00 3.132396e+00
    endloop
  endfacet
  facet normal -2.484335e-01 -9.579706e-01 1.434331e-01
    outer loop
      vertex -8.002877e-02 -9.152424e+00 3.132396e+00
      vertex -1.697894e+00 -9.152424e+00 3.301724e-01
      vertex -1.645290e+00 -9.163702e+00 3.370977e-01
    endloop
  endfacet
  facet normal -1.996637e-01 -9.730600e-01 1.152759e-01
    outer loop
      vertex -8.002877e-02 -9.152424e+00 3.132396e+00
      vertex -1.645290e+00 -9.163702e+00 3.370977e-01
      vertex -5.572629e-02 -9.163702e+00 3.090303e+00
    endloop
  endfacet
  facet normal -1.005960e-01 -9.932307e-01 5.807914e-02
    outer loop
      vertex -5.572629e-02 -9.163702e+00 3.090303e+00
      vertex -1.645290e+00 -9.163702e+00 3.370977e-01
      vertex -1.591039e+00 -9.167500e+00 3.442400e-01
    endloop
  endfacet
  facet normal -5.029801e-02 -9.983121e-01 2.903957e-02
    outer loop
      vertex -5.572629e-02 -9.163702e+00 3.090303e+00
      vertex -1.591039e+00 -9.167500e+00 3.442400e-01
      vertex -3.066230e-02 -9.167500e+00 3.046891e+00
    endloop
  endfacet
  facet normal 5.425601e-16 -5.249696e-01 8.511210e-01
    outer loop
      vertex 1.556625e-01 -9.042500e+00 3.263397e+00
      vertex -1.556623e-01 -9.042500e+00 3.263397e+00
      vertex -1.488967e-01 -9.060896e+00 3.251679e+00
    endloop
  endfacet
  facet normal 5.425601e-16 -5.495158e-01 8.354833e-01
    outer loop
      vertex 1.556625e-01 -9.042500e+00 3.263397e+00
      vertex -1.488967e-01 -9.060896e+00 3.251679e+00
      vertex 1.488969e-01 -9.060896e+00 3.251679e+00
    endloop
  endfacet
  facet normal 5.063894e-16 -5.971520e-01 8.021281e-01
    outer loop
      vertex 1.488969e-01 -9.060896e+00 3.251679e+00
      vertex -1.488967e-01 -9.060896e+00 3.251679e+00
      vertex -1.412313e-01 -9.078197e+00 3.238402e+00
    endloop
  endfacet
  facet normal 4.702187e-16 -6.202420e-01 7.844105e-01
    outer loop
      vertex 1.488969e-01 -9.060896e+00 3.251679e+00
      vertex -1.412313e-01 -9.078197e+00 3.238402e+00
      vertex 1.412313e-01 -9.078197e+00 3.238402e+00
    endloop
  endfacet
  facet normal 4.351524e-16 -6.861938e-01 7.274188e-01
    outer loop
      vertex 1.412313e-01 -9.078197e+00 3.238402e+00
      vertex -1.412313e-01 -9.078197e+00 3.238402e+00
      vertex -1.234407e-01 -9.109011e+00 3.207588e+00
    endloop
  endfacet
  facet normal 4.351524e-16 -7.274188e-01 6.861938e-01
    outer loop
      vertex 1.412313e-01 -9.078197e+00 3.238402e+00
      vertex -1.234407e-01 -9.109011e+00 3.207588e+00
      vertex 1.234407e-01 -9.109011e+00 3.207588e+00
    endloop
  endfacet
  facet normal 3.988898e-16 -8.020840e-01 5.972114e-01
    outer loop
      vertex 1.234407e-01 -9.109011e+00 3.207588e+00
      vertex -1.234407e-01 -9.109011e+00 3.207588e+00
      vertex -1.028314e-01 -9.134007e+00 3.171891e+00
    endloop
  endfacet
  facet normal 3.626270e-16 -8.355240e-01 5.494540e-01
    outer loop
      vertex 1.234407e-01 -9.109011e+00 3.207588e+00
      vertex -1.028314e-01 -9.134007e+00 3.171891e+00
      vertex 1.028314e-01 -9.134007e+00 3.171891e+00
    endloop
  endfacet
  facet normal 2.901016e-16 -8.936031e-01 4.488580e-01
    outer loop
      vertex 1.028314e-01 -9.134007e+00 3.171891e+00
      vertex -1.028314e-01 -9.134007e+00 3.171891e+00
      vertex -8.002877e-02 -9.152424e+00 3.132396e+00
    endloop
  endfacet
  facet normal 2.538389e-16 -9.182422e-01 3.960194e-01
    outer loop
      vertex 1.028314e-01 -9.134007e+00 3.171891e+00
      vertex -8.002877e-02 -9.152424e+00 3.132396e+00
      vertex 8.002877e-02 -9.152424e+00 3.132396e+00
    endloop
  endfacet
  facet normal 1.813135e-16 -9.579706e-01 2.868663e-01
    outer loop
      vertex 8.002877e-02 -9.152424e+00 3.132396e+00
      vertex -8.002877e-02 -9.152424e+00 3.132396e+00
      vertex -5.572629e-02 -9.163702e+00 3.090303e+00
    endloop
  endfacet
  facet normal 1.450508e-16 -9.730600e-01 2.305519e-01
    outer loop
      vertex 8.002877e-02 -9.152424e+00 3.132396e+00
      vertex -5.572629e-02 -9.163702e+00 3.090303e+00
      vertex 5.572653e-02 -9.163702e+00 3.090303e+00
    endloop
  endfacet
  facet normal 7.252541e-17 -9.932307e-01 1.161583e-01
    outer loop
      vertex 5.572653e-02 -9.163702e+00 3.090303e+00
      vertex -5.572629e-02 -9.163702e+00 3.090303e+00
      vertex -3.066230e-02 -9.167500e+00 3.046891e+00
    endloop
  endfacet
  facet normal 3.626270e-17 -9.983119e-01 5.807913e-02
    outer loop
      vertex 5.572653e-02 -9.163702e+00 3.090303e+00
      vertex -3.066230e-02 -9.167500e+00 3.046891e+00
      vertex 3.066254e-02 -9.167500e+00 3.046891e+00
    endloop
  endfacet
  facet normal 5.425601e-16 -4.746076e-01 8.801975e-01
    outer loop
      vertex -1.556623e-01 -9.042500e+00 3.263397e+00
      vertex 1.556625e-01 -9.042500e+00 3.263397e+00
      vertex -1.614766e-01 -9.023155e+00 3.273468e+00
    endloop
  endfacet
  facet normal 5.425601e-16 -4.487919e-01 8.936363e-01
    outer loop
      vertex -1.614766e-01 -9.023155e+00 3.273468e+00
      vertex 1.556625e-01 -9.042500e+00 3.263397e+00
      vertex 1.614766e-01 -9.023155e+00 3.273468e+00
    endloop
  endfacet
  facet normal 5.425600e-16 -3.960873e-01 9.182128e-01
    outer loop
      vertex -1.614766e-01 -9.023155e+00 3.273468e+00
      vertex 1.614766e-01 -9.023155e+00 3.273468e+00
      vertex -1.662953e-01 -9.003006e+00 3.281814e+00
    endloop
  endfacet
  facet normal 5.425601e-16 -3.691985e-01 9.293506e-01
    outer loop
      vertex -1.662953e-01 -9.003006e+00 3.281814e+00
      vertex 1.614766e-01 -9.023155e+00 3.273468e+00
      vertex 1.662953e-01 -9.003006e+00 3.281814e+00
    endloop
  endfacet
  facet normal 5.787307e-16 -3.145525e-01 9.492400e-01
    outer loop
      vertex -1.662953e-01 -9.003006e+00 3.281814e+00
      vertex 1.662953e-01 -9.003006e+00 3.281814e+00
      vertex -1.700819e-01 -8.982206e+00 3.288373e+00
    endloop
  endfacet
  facet normal 6.149014e-16 -2.867954e-01 9.579919e-01
    outer loop
      vertex -1.700819e-01 -8.982206e+00 3.288373e+00
      vertex 1.662953e-01 -9.003006e+00 3.281814e+00
      vertex 1.700819e-01 -8.982206e+00 3.288373e+00
    endloop
  endfacet
  facet normal 6.510721e-16 -2.306239e-01 9.730430e-01
    outer loop
      vertex -1.700819e-01 -8.982206e+00 3.288373e+00
      vertex 1.700819e-01 -8.982206e+00 3.288373e+00
      vertex -1.728072e-01 -8.960913e+00 3.293093e+00
    endloop
  endfacet
  facet normal 6.510721e-16 -2.022095e-01 9.793423e-01
    outer loop
      vertex 1.700819e-01 -8.982206e+00 3.288373e+00
      vertex 1.728072e-01 -8.960913e+00 3.293093e+00
      vertex -1.728072e-01 -8.960913e+00 3.293093e+00
    endloop
  endfacet
  facet normal 6.510721e-16 -1.449400e-01 9.894404e-01
    outer loop
      vertex -1.728072e-01 -8.960913e+00 3.293093e+00
      vertex 1.728072e-01 -8.960913e+00 3.293093e+00
      vertex 1.744506e-01 -8.939289e+00 3.295940e+00
    endloop
  endfacet
  facet normal 6.510721e-16 -1.160848e-01 9.932393e-01
    outer loop
      vertex -1.728072e-01 -8.960913e+00 3.293093e+00
      vertex 1.744506e-01 -8.939289e+00 3.295940e+00
      vertex -1.744506e-01 -8.939289e+00 3.295940e+00
    endloop
  endfacet
  facet normal 6.407376e-16 -5.815303e-02 9.983077e-01
    outer loop
      vertex -1.744506e-01 -8.939289e+00 3.295940e+00
      vertex 1.744506e-01 -8.939289e+00 3.295940e+00
      vertex 1.750000e-01 -8.917500e+00 3.296891e+00
    endloop
  endfacet
  facet normal 6.407375e-16 -2.907651e-02 9.995772e-01
    outer loop
      vertex -1.744506e-01 -8.939289e+00 3.295940e+00
      vertex 1.750000e-01 -8.917500e+00 3.296891e+00
      vertex -1.750000e-01 -8.917500e+00 3.296891e+00
    endloop
  endfacet
endsolid Default
